%TF.GenerationSoftware,KiCad,Pcbnew,(5.1.12)-1*%
%TF.CreationDate,2021-12-28T12:25:46-06:00*%
%TF.ProjectId,iPiMI,6950694d-492e-46b6-9963-61645f706362,rev?*%
%TF.SameCoordinates,Original*%
%TF.FileFunction,Legend,Top*%
%TF.FilePolarity,Positive*%
%FSLAX46Y46*%
G04 Gerber Fmt 4.6, Leading zero omitted, Abs format (unit mm)*
G04 Created by KiCad (PCBNEW (5.1.12)-1) date 2021-12-28 12:25:46*
%MOMM*%
%LPD*%
G01*
G04 APERTURE LIST*
%ADD10C,0.100000*%
%ADD11C,0.150000*%
%ADD12C,0.300000*%
%ADD13C,0.010000*%
%ADD14C,0.120000*%
G04 APERTURE END LIST*
D10*
X33197619Y-38447619D02*
X33173809Y-38519047D01*
X33173809Y-38638095D01*
X33197619Y-38685714D01*
X33221428Y-38709523D01*
X33269047Y-38733333D01*
X33316666Y-38733333D01*
X33364285Y-38709523D01*
X33388095Y-38685714D01*
X33411904Y-38638095D01*
X33435714Y-38542857D01*
X33459523Y-38495238D01*
X33483333Y-38471428D01*
X33530952Y-38447619D01*
X33578571Y-38447619D01*
X33626190Y-38471428D01*
X33650000Y-38495238D01*
X33673809Y-38542857D01*
X33673809Y-38661904D01*
X33650000Y-38733333D01*
X33173809Y-38947619D02*
X33673809Y-38947619D01*
X33673809Y-39138095D01*
X33650000Y-39185714D01*
X33626190Y-39209523D01*
X33578571Y-39233333D01*
X33507142Y-39233333D01*
X33459523Y-39209523D01*
X33435714Y-39185714D01*
X33411904Y-39138095D01*
X33411904Y-38947619D01*
X33173809Y-39447619D02*
X33673809Y-39447619D01*
X33173809Y-39733333D02*
X33459523Y-39519047D01*
X33673809Y-39733333D02*
X33388095Y-39447619D01*
X33364285Y-39947619D02*
X33364285Y-40328571D01*
X33197619Y-30847619D02*
X33173809Y-30919047D01*
X33173809Y-31038095D01*
X33197619Y-31085714D01*
X33221428Y-31109523D01*
X33269047Y-31133333D01*
X33316666Y-31133333D01*
X33364285Y-31109523D01*
X33388095Y-31085714D01*
X33411904Y-31038095D01*
X33435714Y-30942857D01*
X33459523Y-30895238D01*
X33483333Y-30871428D01*
X33530952Y-30847619D01*
X33578571Y-30847619D01*
X33626190Y-30871428D01*
X33650000Y-30895238D01*
X33673809Y-30942857D01*
X33673809Y-31061904D01*
X33650000Y-31133333D01*
X33173809Y-31347619D02*
X33673809Y-31347619D01*
X33673809Y-31538095D01*
X33650000Y-31585714D01*
X33626190Y-31609523D01*
X33578571Y-31633333D01*
X33507142Y-31633333D01*
X33459523Y-31609523D01*
X33435714Y-31585714D01*
X33411904Y-31538095D01*
X33411904Y-31347619D01*
X33173809Y-31847619D02*
X33673809Y-31847619D01*
X33173809Y-32133333D02*
X33459523Y-31919047D01*
X33673809Y-32133333D02*
X33388095Y-31847619D01*
X33364285Y-32347619D02*
X33364285Y-32728571D01*
X33173809Y-32538095D02*
X33554761Y-32538095D01*
X33197619Y-23461904D02*
X33173809Y-23533333D01*
X33173809Y-23652380D01*
X33197619Y-23700000D01*
X33221428Y-23723809D01*
X33269047Y-23747619D01*
X33316666Y-23747619D01*
X33364285Y-23723809D01*
X33388095Y-23700000D01*
X33411904Y-23652380D01*
X33435714Y-23557142D01*
X33459523Y-23509523D01*
X33483333Y-23485714D01*
X33530952Y-23461904D01*
X33578571Y-23461904D01*
X33626190Y-23485714D01*
X33650000Y-23509523D01*
X33673809Y-23557142D01*
X33673809Y-23676190D01*
X33650000Y-23747619D01*
X33673809Y-23914285D02*
X33173809Y-24033333D01*
X33530952Y-24128571D01*
X33173809Y-24223809D01*
X33673809Y-24342857D01*
X33364285Y-24533333D02*
X33364285Y-24914285D01*
X33197619Y-20861904D02*
X33173809Y-20933333D01*
X33173809Y-21052380D01*
X33197619Y-21100000D01*
X33221428Y-21123809D01*
X33269047Y-21147619D01*
X33316666Y-21147619D01*
X33364285Y-21123809D01*
X33388095Y-21100000D01*
X33411904Y-21052380D01*
X33435714Y-20957142D01*
X33459523Y-20909523D01*
X33483333Y-20885714D01*
X33530952Y-20861904D01*
X33578571Y-20861904D01*
X33626190Y-20885714D01*
X33650000Y-20909523D01*
X33673809Y-20957142D01*
X33673809Y-21076190D01*
X33650000Y-21147619D01*
X33673809Y-21314285D02*
X33173809Y-21433333D01*
X33530952Y-21528571D01*
X33173809Y-21623809D01*
X33673809Y-21742857D01*
X33364285Y-21933333D02*
X33364285Y-22314285D01*
X33173809Y-22123809D02*
X33554761Y-22123809D01*
X33173809Y-18223809D02*
X33673809Y-18223809D01*
X33673809Y-18414285D01*
X33650000Y-18461904D01*
X33626190Y-18485714D01*
X33578571Y-18509523D01*
X33507142Y-18509523D01*
X33459523Y-18485714D01*
X33435714Y-18461904D01*
X33411904Y-18414285D01*
X33411904Y-18223809D01*
X33673809Y-18676190D02*
X33173809Y-18795238D01*
X33530952Y-18890476D01*
X33173809Y-18985714D01*
X33673809Y-19104761D01*
X33173809Y-19580952D02*
X33411904Y-19414285D01*
X33173809Y-19295238D02*
X33673809Y-19295238D01*
X33673809Y-19485714D01*
X33650000Y-19533333D01*
X33626190Y-19557142D01*
X33578571Y-19580952D01*
X33507142Y-19580952D01*
X33459523Y-19557142D01*
X33435714Y-19533333D01*
X33411904Y-19485714D01*
X33411904Y-19295238D01*
X33364285Y-19795238D02*
X33364285Y-20176190D01*
X33173809Y-15623809D02*
X33673809Y-15623809D01*
X33673809Y-15814285D01*
X33650000Y-15861904D01*
X33626190Y-15885714D01*
X33578571Y-15909523D01*
X33507142Y-15909523D01*
X33459523Y-15885714D01*
X33435714Y-15861904D01*
X33411904Y-15814285D01*
X33411904Y-15623809D01*
X33673809Y-16076190D02*
X33173809Y-16195238D01*
X33530952Y-16290476D01*
X33173809Y-16385714D01*
X33673809Y-16504761D01*
X33173809Y-16980952D02*
X33411904Y-16814285D01*
X33173809Y-16695238D02*
X33673809Y-16695238D01*
X33673809Y-16885714D01*
X33650000Y-16933333D01*
X33626190Y-16957142D01*
X33578571Y-16980952D01*
X33507142Y-16980952D01*
X33459523Y-16957142D01*
X33435714Y-16933333D01*
X33411904Y-16885714D01*
X33411904Y-16695238D01*
X33364285Y-17195238D02*
X33364285Y-17576190D01*
X33173809Y-17385714D02*
X33554761Y-17385714D01*
X26573809Y-38423809D02*
X27073809Y-38423809D01*
X27073809Y-38614285D01*
X27050000Y-38661904D01*
X27026190Y-38685714D01*
X26978571Y-38709523D01*
X26907142Y-38709523D01*
X26859523Y-38685714D01*
X26835714Y-38661904D01*
X26811904Y-38614285D01*
X26811904Y-38423809D01*
X27073809Y-38876190D02*
X26573809Y-38995238D01*
X26930952Y-39090476D01*
X26573809Y-39185714D01*
X27073809Y-39304761D01*
X26573809Y-39780952D02*
X26811904Y-39614285D01*
X26573809Y-39495238D02*
X27073809Y-39495238D01*
X27073809Y-39685714D01*
X27050000Y-39733333D01*
X27026190Y-39757142D01*
X26978571Y-39780952D01*
X26907142Y-39780952D01*
X26859523Y-39757142D01*
X26835714Y-39733333D01*
X26811904Y-39685714D01*
X26811904Y-39495238D01*
X26764285Y-39995238D02*
X26764285Y-40376190D01*
X26573809Y-36023809D02*
X27073809Y-36023809D01*
X27073809Y-36214285D01*
X27050000Y-36261904D01*
X27026190Y-36285714D01*
X26978571Y-36309523D01*
X26907142Y-36309523D01*
X26859523Y-36285714D01*
X26835714Y-36261904D01*
X26811904Y-36214285D01*
X26811904Y-36023809D01*
X27073809Y-36476190D02*
X26573809Y-36595238D01*
X26930952Y-36690476D01*
X26573809Y-36785714D01*
X27073809Y-36904761D01*
X26573809Y-37380952D02*
X26811904Y-37214285D01*
X26573809Y-37095238D02*
X27073809Y-37095238D01*
X27073809Y-37285714D01*
X27050000Y-37333333D01*
X27026190Y-37357142D01*
X26978571Y-37380952D01*
X26907142Y-37380952D01*
X26859523Y-37357142D01*
X26835714Y-37333333D01*
X26811904Y-37285714D01*
X26811904Y-37095238D01*
X26764285Y-37595238D02*
X26764285Y-37976190D01*
X26573809Y-33423809D02*
X27073809Y-33423809D01*
X27073809Y-33614285D01*
X27050000Y-33661904D01*
X27026190Y-33685714D01*
X26978571Y-33709523D01*
X26907142Y-33709523D01*
X26859523Y-33685714D01*
X26835714Y-33661904D01*
X26811904Y-33614285D01*
X26811904Y-33423809D01*
X27073809Y-33876190D02*
X26573809Y-33995238D01*
X26930952Y-34090476D01*
X26573809Y-34185714D01*
X27073809Y-34304761D01*
X26573809Y-34780952D02*
X26811904Y-34614285D01*
X26573809Y-34495238D02*
X27073809Y-34495238D01*
X27073809Y-34685714D01*
X27050000Y-34733333D01*
X27026190Y-34757142D01*
X26978571Y-34780952D01*
X26907142Y-34780952D01*
X26859523Y-34757142D01*
X26835714Y-34733333D01*
X26811904Y-34685714D01*
X26811904Y-34495238D01*
X26764285Y-34995238D02*
X26764285Y-35376190D01*
X26573809Y-35185714D02*
X26954761Y-35185714D01*
X26621428Y-28926190D02*
X26597619Y-28902380D01*
X26573809Y-28830952D01*
X26573809Y-28783333D01*
X26597619Y-28711904D01*
X26645238Y-28664285D01*
X26692857Y-28640476D01*
X26788095Y-28616666D01*
X26859523Y-28616666D01*
X26954761Y-28640476D01*
X27002380Y-28664285D01*
X27050000Y-28711904D01*
X27073809Y-28783333D01*
X27073809Y-28830952D01*
X27050000Y-28902380D01*
X27026190Y-28926190D01*
X26573809Y-29140476D02*
X27073809Y-29140476D01*
X26764285Y-29378571D02*
X26764285Y-29759523D01*
X26573809Y-29569047D02*
X26954761Y-29569047D01*
X26621428Y-26476190D02*
X26597619Y-26452380D01*
X26573809Y-26380952D01*
X26573809Y-26333333D01*
X26597619Y-26261904D01*
X26645238Y-26214285D01*
X26692857Y-26190476D01*
X26788095Y-26166666D01*
X26859523Y-26166666D01*
X26954761Y-26190476D01*
X27002380Y-26214285D01*
X27050000Y-26261904D01*
X27073809Y-26333333D01*
X27073809Y-26380952D01*
X27050000Y-26452380D01*
X27026190Y-26476190D01*
X26573809Y-26690476D02*
X27073809Y-26690476D01*
X26764285Y-26928571D02*
X26764285Y-27309523D01*
X26573809Y-23580952D02*
X26811904Y-23414285D01*
X26573809Y-23295238D02*
X27073809Y-23295238D01*
X27073809Y-23485714D01*
X27050000Y-23533333D01*
X27026190Y-23557142D01*
X26978571Y-23580952D01*
X26907142Y-23580952D01*
X26859523Y-23557142D01*
X26835714Y-23533333D01*
X26811904Y-23485714D01*
X26811904Y-23295238D01*
X26835714Y-23795238D02*
X26835714Y-23961904D01*
X26573809Y-24033333D02*
X26573809Y-23795238D01*
X27073809Y-23795238D01*
X27073809Y-24033333D01*
X26597619Y-24223809D02*
X26573809Y-24295238D01*
X26573809Y-24414285D01*
X26597619Y-24461904D01*
X26621428Y-24485714D01*
X26669047Y-24509523D01*
X26716666Y-24509523D01*
X26764285Y-24485714D01*
X26788095Y-24461904D01*
X26811904Y-24414285D01*
X26835714Y-24319047D01*
X26859523Y-24271428D01*
X26883333Y-24247619D01*
X26930952Y-24223809D01*
X26978571Y-24223809D01*
X27026190Y-24247619D01*
X27050000Y-24271428D01*
X27073809Y-24319047D01*
X27073809Y-24438095D01*
X27050000Y-24509523D01*
X26764285Y-24723809D02*
X26764285Y-25104761D01*
X26573809Y-24914285D02*
X26954761Y-24914285D01*
X26573809Y-20980952D02*
X26811904Y-20814285D01*
X26573809Y-20695238D02*
X27073809Y-20695238D01*
X27073809Y-20885714D01*
X27050000Y-20933333D01*
X27026190Y-20957142D01*
X26978571Y-20980952D01*
X26907142Y-20980952D01*
X26859523Y-20957142D01*
X26835714Y-20933333D01*
X26811904Y-20885714D01*
X26811904Y-20695238D01*
X26835714Y-21195238D02*
X26835714Y-21361904D01*
X26573809Y-21433333D02*
X26573809Y-21195238D01*
X27073809Y-21195238D01*
X27073809Y-21433333D01*
X26597619Y-21623809D02*
X26573809Y-21695238D01*
X26573809Y-21814285D01*
X26597619Y-21861904D01*
X26621428Y-21885714D01*
X26669047Y-21909523D01*
X26716666Y-21909523D01*
X26764285Y-21885714D01*
X26788095Y-21861904D01*
X26811904Y-21814285D01*
X26835714Y-21719047D01*
X26859523Y-21671428D01*
X26883333Y-21647619D01*
X26930952Y-21623809D01*
X26978571Y-21623809D01*
X27026190Y-21647619D01*
X27050000Y-21671428D01*
X27073809Y-21719047D01*
X27073809Y-21838095D01*
X27050000Y-21909523D01*
X26764285Y-22123809D02*
X26764285Y-22504761D01*
X26573809Y-18497619D02*
X27073809Y-18497619D01*
X26835714Y-18497619D02*
X26835714Y-18783333D01*
X26573809Y-18783333D02*
X27073809Y-18783333D01*
X26573809Y-19021428D02*
X27073809Y-19021428D01*
X27073809Y-19140476D01*
X27050000Y-19211904D01*
X27002380Y-19259523D01*
X26954761Y-19283333D01*
X26859523Y-19307142D01*
X26788095Y-19307142D01*
X26692857Y-19283333D01*
X26645238Y-19259523D01*
X26597619Y-19211904D01*
X26573809Y-19140476D01*
X26573809Y-19021428D01*
X26764285Y-19521428D02*
X26764285Y-19902380D01*
X26573809Y-15897619D02*
X27073809Y-15897619D01*
X26835714Y-15897619D02*
X26835714Y-16183333D01*
X26573809Y-16183333D02*
X27073809Y-16183333D01*
X26573809Y-16421428D02*
X27073809Y-16421428D01*
X27073809Y-16540476D01*
X27050000Y-16611904D01*
X27002380Y-16659523D01*
X26954761Y-16683333D01*
X26859523Y-16707142D01*
X26788095Y-16707142D01*
X26692857Y-16683333D01*
X26645238Y-16659523D01*
X26597619Y-16611904D01*
X26573809Y-16540476D01*
X26573809Y-16421428D01*
X26764285Y-16921428D02*
X26764285Y-17302380D01*
X26573809Y-17111904D02*
X26954761Y-17111904D01*
D11*
X63911219Y-17481752D02*
X64911219Y-17481752D01*
X64911219Y-17862704D01*
X64863600Y-17957942D01*
X64815980Y-18005561D01*
X64720742Y-18053180D01*
X64577885Y-18053180D01*
X64482647Y-18005561D01*
X64435028Y-17957942D01*
X64387409Y-17862704D01*
X64387409Y-17481752D01*
X63911219Y-18957942D02*
X63911219Y-18481752D01*
X64911219Y-18481752D01*
X64435028Y-19291276D02*
X64435028Y-19624609D01*
X63911219Y-19767466D02*
X63911219Y-19291276D01*
X64911219Y-19291276D01*
X64911219Y-19767466D01*
X63911219Y-20196038D02*
X64911219Y-20196038D01*
X64911219Y-20434133D01*
X64863600Y-20576990D01*
X64768361Y-20672228D01*
X64673123Y-20719847D01*
X64482647Y-20767466D01*
X64339790Y-20767466D01*
X64149314Y-20719847D01*
X64054076Y-20672228D01*
X63958838Y-20576990D01*
X63911219Y-20434133D01*
X63911219Y-20196038D01*
X61396619Y-19035780D02*
X61872809Y-18702447D01*
X61396619Y-18464352D02*
X62396619Y-18464352D01*
X62396619Y-18845304D01*
X62349000Y-18940542D01*
X62301380Y-18988161D01*
X62206142Y-19035780D01*
X62063285Y-19035780D01*
X61968047Y-18988161D01*
X61920428Y-18940542D01*
X61872809Y-18845304D01*
X61872809Y-18464352D01*
X61444238Y-19416733D02*
X61396619Y-19559590D01*
X61396619Y-19797685D01*
X61444238Y-19892923D01*
X61491857Y-19940542D01*
X61587095Y-19988161D01*
X61682333Y-19988161D01*
X61777571Y-19940542D01*
X61825190Y-19892923D01*
X61872809Y-19797685D01*
X61920428Y-19607209D01*
X61968047Y-19511971D01*
X62015666Y-19464352D01*
X62110904Y-19416733D01*
X62206142Y-19416733D01*
X62301380Y-19464352D01*
X62349000Y-19511971D01*
X62396619Y-19607209D01*
X62396619Y-19845304D01*
X62349000Y-19988161D01*
X62396619Y-20273876D02*
X62396619Y-20845304D01*
X61396619Y-20559590D02*
X62396619Y-20559590D01*
X58831219Y-18021466D02*
X59831219Y-18021466D01*
X59831219Y-18402419D01*
X59783600Y-18497657D01*
X59735980Y-18545276D01*
X59640742Y-18592895D01*
X59497885Y-18592895D01*
X59402647Y-18545276D01*
X59355028Y-18497657D01*
X59307409Y-18402419D01*
X59307409Y-18021466D01*
X59831219Y-18926228D02*
X58831219Y-19164323D01*
X59545504Y-19354800D01*
X58831219Y-19545276D01*
X59831219Y-19783371D01*
X58831219Y-20735752D02*
X59307409Y-20402419D01*
X58831219Y-20164323D02*
X59831219Y-20164323D01*
X59831219Y-20545276D01*
X59783600Y-20640514D01*
X59735980Y-20688133D01*
X59640742Y-20735752D01*
X59497885Y-20735752D01*
X59402647Y-20688133D01*
X59355028Y-20640514D01*
X59307409Y-20545276D01*
X59307409Y-20164323D01*
X66451219Y-18119885D02*
X67451219Y-18119885D01*
X66975028Y-18119885D02*
X66975028Y-18691314D01*
X66451219Y-18691314D02*
X67451219Y-18691314D01*
X66451219Y-19167504D02*
X67451219Y-19167504D01*
X67451219Y-19405600D01*
X67403600Y-19548457D01*
X67308361Y-19643695D01*
X67213123Y-19691314D01*
X67022647Y-19738933D01*
X66879790Y-19738933D01*
X66689314Y-19691314D01*
X66594076Y-19643695D01*
X66498838Y-19548457D01*
X66451219Y-19405600D01*
X66451219Y-19167504D01*
X66451219Y-20167504D02*
X67451219Y-20167504D01*
X67451219Y-20405600D01*
X67403600Y-20548457D01*
X67308361Y-20643695D01*
X67213123Y-20691314D01*
X67022647Y-20738933D01*
X66879790Y-20738933D01*
X66689314Y-20691314D01*
X66594076Y-20643695D01*
X66498838Y-20548457D01*
X66451219Y-20405600D01*
X66451219Y-20167504D01*
X69947619Y-18704761D02*
X68947619Y-19038095D01*
X69947619Y-19371428D01*
X68947619Y-19704761D02*
X69947619Y-19704761D01*
X68947619Y-20180952D02*
X69947619Y-20180952D01*
X68947619Y-20752380D01*
X69947619Y-20752380D01*
X72331200Y-18567495D02*
X72378819Y-18472257D01*
X72378819Y-18329400D01*
X72331200Y-18186542D01*
X72235961Y-18091304D01*
X72140723Y-18043685D01*
X71950247Y-17996066D01*
X71807390Y-17996066D01*
X71616914Y-18043685D01*
X71521676Y-18091304D01*
X71426438Y-18186542D01*
X71378819Y-18329400D01*
X71378819Y-18424638D01*
X71426438Y-18567495D01*
X71474057Y-18615114D01*
X71807390Y-18615114D01*
X71807390Y-18424638D01*
X71378819Y-19043685D02*
X72378819Y-19043685D01*
X71378819Y-19615114D01*
X72378819Y-19615114D01*
X71378819Y-20091304D02*
X72378819Y-20091304D01*
X72378819Y-20329400D01*
X72331200Y-20472257D01*
X72235961Y-20567495D01*
X72140723Y-20615114D01*
X71950247Y-20662733D01*
X71807390Y-20662733D01*
X71616914Y-20615114D01*
X71521676Y-20567495D01*
X71426438Y-20472257D01*
X71378819Y-20329400D01*
X71378819Y-20091304D01*
D12*
X37634523Y-25032142D02*
X38467857Y-25032142D01*
X38884523Y-25032142D02*
X38825000Y-24972619D01*
X38765476Y-25032142D01*
X38825000Y-25091666D01*
X38884523Y-25032142D01*
X38765476Y-25032142D01*
X37634523Y-25627380D02*
X38884523Y-25627380D01*
X38884523Y-26103571D01*
X38825000Y-26222619D01*
X38765476Y-26282142D01*
X38646428Y-26341666D01*
X38467857Y-26341666D01*
X38348809Y-26282142D01*
X38289285Y-26222619D01*
X38229761Y-26103571D01*
X38229761Y-25627380D01*
X37634523Y-26877380D02*
X38467857Y-26877380D01*
X38884523Y-26877380D02*
X38825000Y-26817857D01*
X38765476Y-26877380D01*
X38825000Y-26936904D01*
X38884523Y-26877380D01*
X38765476Y-26877380D01*
X37634523Y-27472619D02*
X38884523Y-27472619D01*
X37991666Y-27889285D01*
X38884523Y-28305952D01*
X37634523Y-28305952D01*
X37634523Y-28901190D02*
X38884523Y-28901190D01*
X38884523Y-30270238D02*
X37634523Y-30686904D01*
X38884523Y-31103571D01*
X37694047Y-31996428D02*
X37634523Y-31877380D01*
X37634523Y-31639285D01*
X37694047Y-31520238D01*
X37813095Y-31460714D01*
X38289285Y-31460714D01*
X38408333Y-31520238D01*
X38467857Y-31639285D01*
X38467857Y-31877380D01*
X38408333Y-31996428D01*
X38289285Y-32055952D01*
X38170238Y-32055952D01*
X38051190Y-31460714D01*
X37634523Y-32591666D02*
X38467857Y-32591666D01*
X38229761Y-32591666D02*
X38348809Y-32651190D01*
X38408333Y-32710714D01*
X38467857Y-32829761D01*
X38467857Y-32948809D01*
X37694047Y-33305952D02*
X37634523Y-33425000D01*
X37634523Y-33663095D01*
X37694047Y-33782142D01*
X37813095Y-33841666D01*
X37872619Y-33841666D01*
X37991666Y-33782142D01*
X38051190Y-33663095D01*
X38051190Y-33484523D01*
X38110714Y-33365476D01*
X38229761Y-33305952D01*
X38289285Y-33305952D01*
X38408333Y-33365476D01*
X38467857Y-33484523D01*
X38467857Y-33663095D01*
X38408333Y-33782142D01*
X37634523Y-34377380D02*
X38467857Y-34377380D01*
X38884523Y-34377380D02*
X38825000Y-34317857D01*
X38765476Y-34377380D01*
X38825000Y-34436904D01*
X38884523Y-34377380D01*
X38765476Y-34377380D01*
X37634523Y-35151190D02*
X37694047Y-35032142D01*
X37753571Y-34972619D01*
X37872619Y-34913095D01*
X38229761Y-34913095D01*
X38348809Y-34972619D01*
X38408333Y-35032142D01*
X38467857Y-35151190D01*
X38467857Y-35329761D01*
X38408333Y-35448809D01*
X38348809Y-35508333D01*
X38229761Y-35567857D01*
X37872619Y-35567857D01*
X37753571Y-35508333D01*
X37694047Y-35448809D01*
X37634523Y-35329761D01*
X37634523Y-35151190D01*
X38467857Y-36103571D02*
X37634523Y-36103571D01*
X38348809Y-36103571D02*
X38408333Y-36163095D01*
X38467857Y-36282142D01*
X38467857Y-36460714D01*
X38408333Y-36579761D01*
X38289285Y-36639285D01*
X37634523Y-36639285D01*
X37634523Y-38841666D02*
X37634523Y-38127380D01*
X37634523Y-38484523D02*
X38884523Y-38484523D01*
X38705952Y-38365476D01*
X38586904Y-38246428D01*
X38527380Y-38127380D01*
X37753571Y-39377380D02*
X37694047Y-39436904D01*
X37634523Y-39377380D01*
X37694047Y-39317857D01*
X37753571Y-39377380D01*
X37634523Y-39377380D01*
X38884523Y-40210714D02*
X38884523Y-40329761D01*
X38825000Y-40448809D01*
X38765476Y-40508333D01*
X38646428Y-40567857D01*
X38408333Y-40627380D01*
X38110714Y-40627380D01*
X37872619Y-40567857D01*
X37753571Y-40508333D01*
X37694047Y-40448809D01*
X37634523Y-40329761D01*
X37634523Y-40210714D01*
X37694047Y-40091666D01*
X37753571Y-40032142D01*
X37872619Y-39972619D01*
X38110714Y-39913095D01*
X38408333Y-39913095D01*
X38646428Y-39972619D01*
X38765476Y-40032142D01*
X38825000Y-40091666D01*
X38884523Y-40210714D01*
D11*
X62147619Y-35290476D02*
X63147619Y-35290476D01*
X63147619Y-35671428D01*
X63100000Y-35766666D01*
X63052380Y-35814285D01*
X62957142Y-35861904D01*
X62814285Y-35861904D01*
X62719047Y-35814285D01*
X62671428Y-35766666D01*
X62623809Y-35671428D01*
X62623809Y-35290476D01*
X63147619Y-36480952D02*
X63147619Y-36671428D01*
X63100000Y-36766666D01*
X63004761Y-36861904D01*
X62814285Y-36909523D01*
X62480952Y-36909523D01*
X62290476Y-36861904D01*
X62195238Y-36766666D01*
X62147619Y-36671428D01*
X62147619Y-36480952D01*
X62195238Y-36385714D01*
X62290476Y-36290476D01*
X62480952Y-36242857D01*
X62814285Y-36242857D01*
X63004761Y-36290476D01*
X63100000Y-36385714D01*
X63147619Y-36480952D01*
X63147619Y-37242857D02*
X62147619Y-37480952D01*
X62861904Y-37671428D01*
X62147619Y-37861904D01*
X63147619Y-38100000D01*
X62671428Y-38480952D02*
X62671428Y-38814285D01*
X62147619Y-38957142D02*
X62147619Y-38480952D01*
X63147619Y-38480952D01*
X63147619Y-38957142D01*
X62147619Y-39957142D02*
X62623809Y-39623809D01*
X62147619Y-39385714D02*
X63147619Y-39385714D01*
X63147619Y-39766666D01*
X63100000Y-39861904D01*
X63052380Y-39909523D01*
X62957142Y-39957142D01*
X62814285Y-39957142D01*
X62719047Y-39909523D01*
X62671428Y-39861904D01*
X62623809Y-39766666D01*
X62623809Y-39385714D01*
X51347619Y-35947619D02*
X51823809Y-35614285D01*
X51347619Y-35376190D02*
X52347619Y-35376190D01*
X52347619Y-35757142D01*
X52300000Y-35852380D01*
X52252380Y-35900000D01*
X52157142Y-35947619D01*
X52014285Y-35947619D01*
X51919047Y-35900000D01*
X51871428Y-35852380D01*
X51823809Y-35757142D01*
X51823809Y-35376190D01*
X51871428Y-36376190D02*
X51871428Y-36709523D01*
X51347619Y-36852380D02*
X51347619Y-36376190D01*
X52347619Y-36376190D01*
X52347619Y-36852380D01*
X51395238Y-37233333D02*
X51347619Y-37376190D01*
X51347619Y-37614285D01*
X51395238Y-37709523D01*
X51442857Y-37757142D01*
X51538095Y-37804761D01*
X51633333Y-37804761D01*
X51728571Y-37757142D01*
X51776190Y-37709523D01*
X51823809Y-37614285D01*
X51871428Y-37423809D01*
X51919047Y-37328571D01*
X51966666Y-37280952D01*
X52061904Y-37233333D01*
X52157142Y-37233333D01*
X52252380Y-37280952D01*
X52300000Y-37328571D01*
X52347619Y-37423809D01*
X52347619Y-37661904D01*
X52300000Y-37804761D01*
X51871428Y-38233333D02*
X51871428Y-38566666D01*
X51347619Y-38709523D02*
X51347619Y-38233333D01*
X52347619Y-38233333D01*
X52347619Y-38709523D01*
X52347619Y-38995238D02*
X52347619Y-39566666D01*
X51347619Y-39280952D02*
X52347619Y-39280952D01*
X35315685Y-23490180D02*
X35315685Y-22490180D01*
X35315685Y-22966371D02*
X35887114Y-22966371D01*
X35887114Y-23490180D02*
X35887114Y-22490180D01*
X36363304Y-23490180D02*
X36363304Y-22490180D01*
X36601400Y-22490180D01*
X36744257Y-22537800D01*
X36839495Y-22633038D01*
X36887114Y-22728276D01*
X36934733Y-22918752D01*
X36934733Y-23061609D01*
X36887114Y-23252085D01*
X36839495Y-23347323D01*
X36744257Y-23442561D01*
X36601400Y-23490180D01*
X36363304Y-23490180D01*
X37363304Y-23490180D02*
X37363304Y-22490180D01*
X37601400Y-22490180D01*
X37744257Y-22537800D01*
X37839495Y-22633038D01*
X37887114Y-22728276D01*
X37934733Y-22918752D01*
X37934733Y-23061609D01*
X37887114Y-23252085D01*
X37839495Y-23347323D01*
X37744257Y-23442561D01*
X37601400Y-23490180D01*
X37363304Y-23490180D01*
X35191866Y-18130780D02*
X35191866Y-17130780D01*
X35572819Y-17130780D01*
X35668057Y-17178400D01*
X35715676Y-17226019D01*
X35763295Y-17321257D01*
X35763295Y-17464114D01*
X35715676Y-17559352D01*
X35668057Y-17606971D01*
X35572819Y-17654590D01*
X35191866Y-17654590D01*
X36096628Y-17130780D02*
X36334723Y-18130780D01*
X36525200Y-17416495D01*
X36715676Y-18130780D01*
X36953771Y-17130780D01*
X37906152Y-18130780D02*
X37572819Y-17654590D01*
X37334723Y-18130780D02*
X37334723Y-17130780D01*
X37715676Y-17130780D01*
X37810914Y-17178400D01*
X37858533Y-17226019D01*
X37906152Y-17321257D01*
X37906152Y-17464114D01*
X37858533Y-17559352D01*
X37810914Y-17606971D01*
X37715676Y-17654590D01*
X37334723Y-17654590D01*
D13*
%TO.C,REF\u002A\u002A*%
G36*
X58001424Y-30000964D02*
G01*
X57600678Y-30076513D01*
X57370846Y-30634041D01*
X57598252Y-30968465D01*
X57661569Y-31062122D01*
X57718104Y-31146782D01*
X57765273Y-31218495D01*
X57800498Y-31273311D01*
X57821195Y-31307280D01*
X57825658Y-31316530D01*
X57814180Y-31333195D01*
X57782449Y-31368806D01*
X57734517Y-31419371D01*
X57674438Y-31480900D01*
X57606267Y-31549399D01*
X57534055Y-31620879D01*
X57461858Y-31691347D01*
X57393727Y-31756811D01*
X57333717Y-31813280D01*
X57285881Y-31856763D01*
X57254273Y-31883268D01*
X57243695Y-31889605D01*
X57224194Y-31880486D01*
X57181469Y-31854920D01*
X57119702Y-31815597D01*
X57043069Y-31765203D01*
X56955752Y-31706427D01*
X56905948Y-31672368D01*
X56815007Y-31610289D01*
X56732941Y-31555126D01*
X56663837Y-31509554D01*
X56611778Y-31476250D01*
X56580850Y-31457890D01*
X56574350Y-31455131D01*
X56555879Y-31461385D01*
X56512828Y-31478434D01*
X56451251Y-31503703D01*
X56377201Y-31534622D01*
X56296730Y-31568618D01*
X56215893Y-31603118D01*
X56140742Y-31635551D01*
X56077329Y-31663343D01*
X56031707Y-31683923D01*
X56009931Y-31694719D01*
X56009074Y-31695356D01*
X56004916Y-31712307D01*
X55995639Y-31757451D01*
X55982156Y-31826110D01*
X55965379Y-31913602D01*
X55946219Y-32015250D01*
X55935170Y-32074556D01*
X55914490Y-32183172D01*
X55894811Y-32281277D01*
X55877211Y-32363909D01*
X55862767Y-32426104D01*
X55852554Y-32462899D01*
X55849314Y-32470296D01*
X55827383Y-32477540D01*
X55777853Y-32483385D01*
X55706515Y-32487835D01*
X55619161Y-32490893D01*
X55521583Y-32492565D01*
X55419574Y-32492853D01*
X55318925Y-32491761D01*
X55225428Y-32489294D01*
X55144875Y-32485456D01*
X55083058Y-32480250D01*
X55045770Y-32473681D01*
X55038007Y-32469741D01*
X55028702Y-32446188D01*
X55015400Y-32396282D01*
X54999663Y-32326623D01*
X54983054Y-32243813D01*
X54977681Y-32214905D01*
X54952152Y-32075531D01*
X54931592Y-31965436D01*
X54915185Y-31880982D01*
X54902113Y-31818530D01*
X54891559Y-31774444D01*
X54882706Y-31745085D01*
X54874737Y-31726815D01*
X54866835Y-31715998D01*
X54865273Y-31714485D01*
X54840114Y-31699377D01*
X54791150Y-31676329D01*
X54724379Y-31647644D01*
X54645795Y-31615622D01*
X54561393Y-31582565D01*
X54477170Y-31550773D01*
X54399121Y-31522549D01*
X54333241Y-31500193D01*
X54285527Y-31486007D01*
X54261973Y-31482293D01*
X54261148Y-31482602D01*
X54241896Y-31495189D01*
X54199537Y-31523744D01*
X54138479Y-31565267D01*
X54063132Y-31616756D01*
X53977904Y-31675211D01*
X53953685Y-31691858D01*
X53865877Y-31751215D01*
X53785762Y-31803447D01*
X53717938Y-31845708D01*
X53667007Y-31875153D01*
X53637569Y-31888937D01*
X53633952Y-31889605D01*
X53614943Y-31878024D01*
X53577286Y-31846024D01*
X53525027Y-31797718D01*
X53462214Y-31737220D01*
X53392894Y-31668644D01*
X53321115Y-31596104D01*
X53250923Y-31523712D01*
X53186365Y-31455584D01*
X53131490Y-31395832D01*
X53090344Y-31348571D01*
X53066974Y-31317913D01*
X53063158Y-31309432D01*
X53072145Y-31289691D01*
X53096384Y-31249274D01*
X53131791Y-31194763D01*
X53160289Y-31152823D01*
X53212582Y-31076829D01*
X53274155Y-30986834D01*
X53335630Y-30896564D01*
X53368531Y-30848032D01*
X53479641Y-30683762D01*
X53405084Y-30545869D01*
X53372422Y-30483049D01*
X53347034Y-30429629D01*
X53332554Y-30393484D01*
X53330540Y-30384284D01*
X53345416Y-30373221D01*
X53387453Y-30351394D01*
X53452773Y-30320434D01*
X53537500Y-30281970D01*
X53637755Y-30237632D01*
X53749661Y-30189047D01*
X53869341Y-30137846D01*
X53992916Y-30085659D01*
X54116509Y-30034113D01*
X54236243Y-29984840D01*
X54348241Y-29939467D01*
X54448623Y-29899625D01*
X54533514Y-29866942D01*
X54599035Y-29843049D01*
X54641310Y-29829574D01*
X54655828Y-29827406D01*
X54674347Y-29844583D01*
X54704410Y-29882190D01*
X54739768Y-29932366D01*
X54742566Y-29936578D01*
X54846375Y-30066264D01*
X54967485Y-30170834D01*
X55102024Y-30249381D01*
X55246118Y-30300999D01*
X55395895Y-30324782D01*
X55547483Y-30319823D01*
X55697008Y-30285217D01*
X55840600Y-30220057D01*
X55872016Y-30200886D01*
X55998875Y-30101174D01*
X56100745Y-29983377D01*
X56177096Y-29851571D01*
X56227398Y-29709833D01*
X56251121Y-29562242D01*
X56247735Y-29412873D01*
X56216712Y-29265803D01*
X56157520Y-29125111D01*
X56069631Y-28994873D01*
X56033958Y-28954586D01*
X55922294Y-28852055D01*
X55804743Y-28777341D01*
X55672980Y-28726090D01*
X55542493Y-28697546D01*
X55395784Y-28690500D01*
X55248347Y-28713996D01*
X55105166Y-28765649D01*
X54971223Y-28843071D01*
X54851502Y-28943875D01*
X54750986Y-29065676D01*
X54740391Y-29081684D01*
X54705694Y-29132398D01*
X54675630Y-29170950D01*
X54656435Y-29189381D01*
X54655828Y-29189649D01*
X54635064Y-29185692D01*
X54587938Y-29170007D01*
X54518327Y-29144222D01*
X54430107Y-29109969D01*
X54327156Y-29068877D01*
X54213350Y-29022576D01*
X54092565Y-28972696D01*
X53968679Y-28920867D01*
X53845568Y-28868719D01*
X53727109Y-28817882D01*
X53617177Y-28769987D01*
X53519651Y-28726662D01*
X53438407Y-28689538D01*
X53377321Y-28660244D01*
X53340270Y-28640412D01*
X53330540Y-28632426D01*
X53338117Y-28608021D01*
X53358440Y-28562358D01*
X53387875Y-28503310D01*
X53405084Y-28470840D01*
X53479641Y-28332947D01*
X53368531Y-28168677D01*
X53311610Y-28084821D01*
X53248970Y-27993013D01*
X53189989Y-27906980D01*
X53160289Y-27863887D01*
X53119590Y-27803277D01*
X53087337Y-27751955D01*
X53067616Y-27716615D01*
X53063446Y-27705137D01*
X53074693Y-27688430D01*
X53106089Y-27651454D01*
X53154376Y-27597795D01*
X53216292Y-27531038D01*
X53288579Y-27454766D01*
X53334992Y-27406527D01*
X53417913Y-27322133D01*
X53492080Y-27249197D01*
X53554320Y-27190669D01*
X53601459Y-27149497D01*
X53630327Y-27128628D01*
X53636185Y-27126626D01*
X53658468Y-27135917D01*
X53703523Y-27161591D01*
X53766789Y-27200800D01*
X53843705Y-27250697D01*
X53929708Y-27308433D01*
X53953685Y-27324851D01*
X54040830Y-27384677D01*
X54119290Y-27438350D01*
X54184655Y-27482870D01*
X54232516Y-27515235D01*
X54258465Y-27532445D01*
X54261148Y-27534107D01*
X54281828Y-27531621D01*
X54327296Y-27518423D01*
X54391556Y-27496814D01*
X54468613Y-27469096D01*
X54552471Y-27437570D01*
X54637134Y-27404537D01*
X54716608Y-27372299D01*
X54784896Y-27343157D01*
X54836003Y-27319412D01*
X54863933Y-27303365D01*
X54865273Y-27302225D01*
X54873255Y-27292412D01*
X54881149Y-27275839D01*
X54889771Y-27248868D01*
X54899938Y-27207861D01*
X54912469Y-27149180D01*
X54928179Y-27069187D01*
X54947887Y-26964245D01*
X54972408Y-26830715D01*
X54977681Y-26801804D01*
X54994236Y-26716118D01*
X55010431Y-26641418D01*
X55024704Y-26584306D01*
X55035492Y-26551383D01*
X55038007Y-26546969D01*
X55060304Y-26539694D01*
X55110131Y-26533781D01*
X55181696Y-26529234D01*
X55269207Y-26526055D01*
X55366872Y-26524251D01*
X55468899Y-26523823D01*
X55569497Y-26524777D01*
X55662873Y-26527116D01*
X55743235Y-26530844D01*
X55804791Y-26535966D01*
X55841750Y-26542484D01*
X55849314Y-26546414D01*
X55856944Y-26568292D01*
X55869358Y-26618109D01*
X55885478Y-26690903D01*
X55904227Y-26781711D01*
X55924529Y-26885569D01*
X55935170Y-26942154D01*
X55955240Y-27049514D01*
X55973420Y-27145254D01*
X55988801Y-27224694D01*
X56000469Y-27283154D01*
X56007512Y-27315955D01*
X56009074Y-27321354D01*
X56026678Y-27330478D01*
X56069082Y-27349765D01*
X56130228Y-27376645D01*
X56204057Y-27408546D01*
X56284511Y-27442898D01*
X56365532Y-27477129D01*
X56441063Y-27508669D01*
X56505045Y-27534946D01*
X56551420Y-27553389D01*
X56574131Y-27561429D01*
X56575124Y-27561578D01*
X56593039Y-27552465D01*
X56634267Y-27526914D01*
X56694709Y-27487612D01*
X56770269Y-27437243D01*
X56856848Y-27378494D01*
X56906579Y-27344342D01*
X56997764Y-27282110D01*
X57080551Y-27226836D01*
X57150751Y-27181218D01*
X57204176Y-27147952D01*
X57236639Y-27129736D01*
X57243917Y-27127105D01*
X57260855Y-27138414D01*
X57297022Y-27169681D01*
X57348365Y-27216910D01*
X57410833Y-27276108D01*
X57480374Y-27343281D01*
X57552935Y-27414434D01*
X57624465Y-27485574D01*
X57690913Y-27552707D01*
X57748226Y-27611839D01*
X57792353Y-27658975D01*
X57819241Y-27690123D01*
X57825658Y-27700543D01*
X57816635Y-27717509D01*
X57791285Y-27758089D01*
X57752190Y-27818337D01*
X57701929Y-27894307D01*
X57643083Y-27982054D01*
X57598252Y-28048244D01*
X57370846Y-28382668D01*
X57485762Y-28661433D01*
X57600678Y-28940197D01*
X58001424Y-29015746D01*
X58402171Y-29091294D01*
X58402171Y-29925415D01*
X58001424Y-30000964D01*
G37*
X58001424Y-30000964D02*
X57600678Y-30076513D01*
X57370846Y-30634041D01*
X57598252Y-30968465D01*
X57661569Y-31062122D01*
X57718104Y-31146782D01*
X57765273Y-31218495D01*
X57800498Y-31273311D01*
X57821195Y-31307280D01*
X57825658Y-31316530D01*
X57814180Y-31333195D01*
X57782449Y-31368806D01*
X57734517Y-31419371D01*
X57674438Y-31480900D01*
X57606267Y-31549399D01*
X57534055Y-31620879D01*
X57461858Y-31691347D01*
X57393727Y-31756811D01*
X57333717Y-31813280D01*
X57285881Y-31856763D01*
X57254273Y-31883268D01*
X57243695Y-31889605D01*
X57224194Y-31880486D01*
X57181469Y-31854920D01*
X57119702Y-31815597D01*
X57043069Y-31765203D01*
X56955752Y-31706427D01*
X56905948Y-31672368D01*
X56815007Y-31610289D01*
X56732941Y-31555126D01*
X56663837Y-31509554D01*
X56611778Y-31476250D01*
X56580850Y-31457890D01*
X56574350Y-31455131D01*
X56555879Y-31461385D01*
X56512828Y-31478434D01*
X56451251Y-31503703D01*
X56377201Y-31534622D01*
X56296730Y-31568618D01*
X56215893Y-31603118D01*
X56140742Y-31635551D01*
X56077329Y-31663343D01*
X56031707Y-31683923D01*
X56009931Y-31694719D01*
X56009074Y-31695356D01*
X56004916Y-31712307D01*
X55995639Y-31757451D01*
X55982156Y-31826110D01*
X55965379Y-31913602D01*
X55946219Y-32015250D01*
X55935170Y-32074556D01*
X55914490Y-32183172D01*
X55894811Y-32281277D01*
X55877211Y-32363909D01*
X55862767Y-32426104D01*
X55852554Y-32462899D01*
X55849314Y-32470296D01*
X55827383Y-32477540D01*
X55777853Y-32483385D01*
X55706515Y-32487835D01*
X55619161Y-32490893D01*
X55521583Y-32492565D01*
X55419574Y-32492853D01*
X55318925Y-32491761D01*
X55225428Y-32489294D01*
X55144875Y-32485456D01*
X55083058Y-32480250D01*
X55045770Y-32473681D01*
X55038007Y-32469741D01*
X55028702Y-32446188D01*
X55015400Y-32396282D01*
X54999663Y-32326623D01*
X54983054Y-32243813D01*
X54977681Y-32214905D01*
X54952152Y-32075531D01*
X54931592Y-31965436D01*
X54915185Y-31880982D01*
X54902113Y-31818530D01*
X54891559Y-31774444D01*
X54882706Y-31745085D01*
X54874737Y-31726815D01*
X54866835Y-31715998D01*
X54865273Y-31714485D01*
X54840114Y-31699377D01*
X54791150Y-31676329D01*
X54724379Y-31647644D01*
X54645795Y-31615622D01*
X54561393Y-31582565D01*
X54477170Y-31550773D01*
X54399121Y-31522549D01*
X54333241Y-31500193D01*
X54285527Y-31486007D01*
X54261973Y-31482293D01*
X54261148Y-31482602D01*
X54241896Y-31495189D01*
X54199537Y-31523744D01*
X54138479Y-31565267D01*
X54063132Y-31616756D01*
X53977904Y-31675211D01*
X53953685Y-31691858D01*
X53865877Y-31751215D01*
X53785762Y-31803447D01*
X53717938Y-31845708D01*
X53667007Y-31875153D01*
X53637569Y-31888937D01*
X53633952Y-31889605D01*
X53614943Y-31878024D01*
X53577286Y-31846024D01*
X53525027Y-31797718D01*
X53462214Y-31737220D01*
X53392894Y-31668644D01*
X53321115Y-31596104D01*
X53250923Y-31523712D01*
X53186365Y-31455584D01*
X53131490Y-31395832D01*
X53090344Y-31348571D01*
X53066974Y-31317913D01*
X53063158Y-31309432D01*
X53072145Y-31289691D01*
X53096384Y-31249274D01*
X53131791Y-31194763D01*
X53160289Y-31152823D01*
X53212582Y-31076829D01*
X53274155Y-30986834D01*
X53335630Y-30896564D01*
X53368531Y-30848032D01*
X53479641Y-30683762D01*
X53405084Y-30545869D01*
X53372422Y-30483049D01*
X53347034Y-30429629D01*
X53332554Y-30393484D01*
X53330540Y-30384284D01*
X53345416Y-30373221D01*
X53387453Y-30351394D01*
X53452773Y-30320434D01*
X53537500Y-30281970D01*
X53637755Y-30237632D01*
X53749661Y-30189047D01*
X53869341Y-30137846D01*
X53992916Y-30085659D01*
X54116509Y-30034113D01*
X54236243Y-29984840D01*
X54348241Y-29939467D01*
X54448623Y-29899625D01*
X54533514Y-29866942D01*
X54599035Y-29843049D01*
X54641310Y-29829574D01*
X54655828Y-29827406D01*
X54674347Y-29844583D01*
X54704410Y-29882190D01*
X54739768Y-29932366D01*
X54742566Y-29936578D01*
X54846375Y-30066264D01*
X54967485Y-30170834D01*
X55102024Y-30249381D01*
X55246118Y-30300999D01*
X55395895Y-30324782D01*
X55547483Y-30319823D01*
X55697008Y-30285217D01*
X55840600Y-30220057D01*
X55872016Y-30200886D01*
X55998875Y-30101174D01*
X56100745Y-29983377D01*
X56177096Y-29851571D01*
X56227398Y-29709833D01*
X56251121Y-29562242D01*
X56247735Y-29412873D01*
X56216712Y-29265803D01*
X56157520Y-29125111D01*
X56069631Y-28994873D01*
X56033958Y-28954586D01*
X55922294Y-28852055D01*
X55804743Y-28777341D01*
X55672980Y-28726090D01*
X55542493Y-28697546D01*
X55395784Y-28690500D01*
X55248347Y-28713996D01*
X55105166Y-28765649D01*
X54971223Y-28843071D01*
X54851502Y-28943875D01*
X54750986Y-29065676D01*
X54740391Y-29081684D01*
X54705694Y-29132398D01*
X54675630Y-29170950D01*
X54656435Y-29189381D01*
X54655828Y-29189649D01*
X54635064Y-29185692D01*
X54587938Y-29170007D01*
X54518327Y-29144222D01*
X54430107Y-29109969D01*
X54327156Y-29068877D01*
X54213350Y-29022576D01*
X54092565Y-28972696D01*
X53968679Y-28920867D01*
X53845568Y-28868719D01*
X53727109Y-28817882D01*
X53617177Y-28769987D01*
X53519651Y-28726662D01*
X53438407Y-28689538D01*
X53377321Y-28660244D01*
X53340270Y-28640412D01*
X53330540Y-28632426D01*
X53338117Y-28608021D01*
X53358440Y-28562358D01*
X53387875Y-28503310D01*
X53405084Y-28470840D01*
X53479641Y-28332947D01*
X53368531Y-28168677D01*
X53311610Y-28084821D01*
X53248970Y-27993013D01*
X53189989Y-27906980D01*
X53160289Y-27863887D01*
X53119590Y-27803277D01*
X53087337Y-27751955D01*
X53067616Y-27716615D01*
X53063446Y-27705137D01*
X53074693Y-27688430D01*
X53106089Y-27651454D01*
X53154376Y-27597795D01*
X53216292Y-27531038D01*
X53288579Y-27454766D01*
X53334992Y-27406527D01*
X53417913Y-27322133D01*
X53492080Y-27249197D01*
X53554320Y-27190669D01*
X53601459Y-27149497D01*
X53630327Y-27128628D01*
X53636185Y-27126626D01*
X53658468Y-27135917D01*
X53703523Y-27161591D01*
X53766789Y-27200800D01*
X53843705Y-27250697D01*
X53929708Y-27308433D01*
X53953685Y-27324851D01*
X54040830Y-27384677D01*
X54119290Y-27438350D01*
X54184655Y-27482870D01*
X54232516Y-27515235D01*
X54258465Y-27532445D01*
X54261148Y-27534107D01*
X54281828Y-27531621D01*
X54327296Y-27518423D01*
X54391556Y-27496814D01*
X54468613Y-27469096D01*
X54552471Y-27437570D01*
X54637134Y-27404537D01*
X54716608Y-27372299D01*
X54784896Y-27343157D01*
X54836003Y-27319412D01*
X54863933Y-27303365D01*
X54865273Y-27302225D01*
X54873255Y-27292412D01*
X54881149Y-27275839D01*
X54889771Y-27248868D01*
X54899938Y-27207861D01*
X54912469Y-27149180D01*
X54928179Y-27069187D01*
X54947887Y-26964245D01*
X54972408Y-26830715D01*
X54977681Y-26801804D01*
X54994236Y-26716118D01*
X55010431Y-26641418D01*
X55024704Y-26584306D01*
X55035492Y-26551383D01*
X55038007Y-26546969D01*
X55060304Y-26539694D01*
X55110131Y-26533781D01*
X55181696Y-26529234D01*
X55269207Y-26526055D01*
X55366872Y-26524251D01*
X55468899Y-26523823D01*
X55569497Y-26524777D01*
X55662873Y-26527116D01*
X55743235Y-26530844D01*
X55804791Y-26535966D01*
X55841750Y-26542484D01*
X55849314Y-26546414D01*
X55856944Y-26568292D01*
X55869358Y-26618109D01*
X55885478Y-26690903D01*
X55904227Y-26781711D01*
X55924529Y-26885569D01*
X55935170Y-26942154D01*
X55955240Y-27049514D01*
X55973420Y-27145254D01*
X55988801Y-27224694D01*
X56000469Y-27283154D01*
X56007512Y-27315955D01*
X56009074Y-27321354D01*
X56026678Y-27330478D01*
X56069082Y-27349765D01*
X56130228Y-27376645D01*
X56204057Y-27408546D01*
X56284511Y-27442898D01*
X56365532Y-27477129D01*
X56441063Y-27508669D01*
X56505045Y-27534946D01*
X56551420Y-27553389D01*
X56574131Y-27561429D01*
X56575124Y-27561578D01*
X56593039Y-27552465D01*
X56634267Y-27526914D01*
X56694709Y-27487612D01*
X56770269Y-27437243D01*
X56856848Y-27378494D01*
X56906579Y-27344342D01*
X56997764Y-27282110D01*
X57080551Y-27226836D01*
X57150751Y-27181218D01*
X57204176Y-27147952D01*
X57236639Y-27129736D01*
X57243917Y-27127105D01*
X57260855Y-27138414D01*
X57297022Y-27169681D01*
X57348365Y-27216910D01*
X57410833Y-27276108D01*
X57480374Y-27343281D01*
X57552935Y-27414434D01*
X57624465Y-27485574D01*
X57690913Y-27552707D01*
X57748226Y-27611839D01*
X57792353Y-27658975D01*
X57819241Y-27690123D01*
X57825658Y-27700543D01*
X57816635Y-27717509D01*
X57791285Y-27758089D01*
X57752190Y-27818337D01*
X57701929Y-27894307D01*
X57643083Y-27982054D01*
X57598252Y-28048244D01*
X57370846Y-28382668D01*
X57485762Y-28661433D01*
X57600678Y-28940197D01*
X58001424Y-29015746D01*
X58402171Y-29091294D01*
X58402171Y-29925415D01*
X58001424Y-30000964D01*
G36*
X52462355Y-31891388D02*
G01*
X52444794Y-31948865D01*
X52422605Y-31985872D01*
X52405058Y-31997927D01*
X52384258Y-31994609D01*
X52351581Y-31973079D01*
X52328438Y-31954874D01*
X52286598Y-31917344D01*
X52268995Y-31889148D01*
X52270144Y-31865111D01*
X52288290Y-31793808D01*
X52287466Y-31741442D01*
X52266902Y-31698918D01*
X52254866Y-31684642D01*
X52212517Y-31638947D01*
X51659474Y-31638947D01*
X51659474Y-31455131D01*
X52461579Y-31455131D01*
X52461579Y-31547039D01*
X52459397Y-31602219D01*
X52451649Y-31630688D01*
X52436532Y-31638943D01*
X52436084Y-31638947D01*
X52420251Y-31642845D01*
X52422316Y-31660474D01*
X52433739Y-31684901D01*
X52454995Y-31735350D01*
X52467784Y-31776316D01*
X52471062Y-31829028D01*
X52462355Y-31891388D01*
G37*
X52462355Y-31891388D02*
X52444794Y-31948865D01*
X52422605Y-31985872D01*
X52405058Y-31997927D01*
X52384258Y-31994609D01*
X52351581Y-31973079D01*
X52328438Y-31954874D01*
X52286598Y-31917344D01*
X52268995Y-31889148D01*
X52270144Y-31865111D01*
X52288290Y-31793808D01*
X52287466Y-31741442D01*
X52266902Y-31698918D01*
X52254866Y-31684642D01*
X52212517Y-31638947D01*
X51659474Y-31638947D01*
X51659474Y-31455131D01*
X52461579Y-31455131D01*
X52461579Y-31547039D01*
X52459397Y-31602219D01*
X52451649Y-31630688D01*
X52436532Y-31638943D01*
X52436084Y-31638947D01*
X52420251Y-31642845D01*
X52422316Y-31660474D01*
X52433739Y-31684901D01*
X52454995Y-31735350D01*
X52467784Y-31776316D01*
X52471062Y-31829028D01*
X52462355Y-31891388D01*
G36*
X52447774Y-28497957D02*
G01*
X52427910Y-28539546D01*
X52399216Y-28579825D01*
X52366191Y-28610510D01*
X52324069Y-28632861D01*
X52268085Y-28648136D01*
X52193472Y-28657592D01*
X52095465Y-28662487D01*
X51969298Y-28664081D01*
X51956086Y-28664106D01*
X51659474Y-28664473D01*
X51659474Y-28480657D01*
X51932919Y-28480657D01*
X52034223Y-28480527D01*
X52107647Y-28479621D01*
X52158729Y-28477173D01*
X52193010Y-28472414D01*
X52216029Y-28464574D01*
X52233327Y-28452885D01*
X52250419Y-28436602D01*
X52287143Y-28379634D01*
X52293958Y-28317445D01*
X52270739Y-28258199D01*
X52253457Y-28237595D01*
X52237209Y-28222470D01*
X52219809Y-28211610D01*
X52195788Y-28204310D01*
X52159678Y-28199863D01*
X52106012Y-28197564D01*
X52029320Y-28196704D01*
X51935957Y-28196578D01*
X51659474Y-28196578D01*
X51659474Y-28012763D01*
X52461579Y-28012763D01*
X52461579Y-28104671D01*
X52459397Y-28159851D01*
X52451649Y-28188320D01*
X52436532Y-28196575D01*
X52436084Y-28196578D01*
X52421280Y-28200408D01*
X52422960Y-28217301D01*
X52439227Y-28250888D01*
X52463160Y-28327063D01*
X52465822Y-28414200D01*
X52447774Y-28497957D01*
G37*
X52447774Y-28497957D02*
X52427910Y-28539546D01*
X52399216Y-28579825D01*
X52366191Y-28610510D01*
X52324069Y-28632861D01*
X52268085Y-28648136D01*
X52193472Y-28657592D01*
X52095465Y-28662487D01*
X51969298Y-28664081D01*
X51956086Y-28664106D01*
X51659474Y-28664473D01*
X51659474Y-28480657D01*
X51932919Y-28480657D01*
X52034223Y-28480527D01*
X52107647Y-28479621D01*
X52158729Y-28477173D01*
X52193010Y-28472414D01*
X52216029Y-28464574D01*
X52233327Y-28452885D01*
X52250419Y-28436602D01*
X52287143Y-28379634D01*
X52293958Y-28317445D01*
X52270739Y-28258199D01*
X52253457Y-28237595D01*
X52237209Y-28222470D01*
X52219809Y-28211610D01*
X52195788Y-28204310D01*
X52159678Y-28199863D01*
X52106012Y-28197564D01*
X52029320Y-28196704D01*
X51935957Y-28196578D01*
X51659474Y-28196578D01*
X51659474Y-28012763D01*
X52461579Y-28012763D01*
X52461579Y-28104671D01*
X52459397Y-28159851D01*
X52451649Y-28188320D01*
X52436532Y-28196575D01*
X52436084Y-28196578D01*
X52421280Y-28200408D01*
X52422960Y-28217301D01*
X52439227Y-28250888D01*
X52463160Y-28327063D01*
X52465822Y-28414200D01*
X52447774Y-28497957D01*
G36*
X52464446Y-33058784D02*
G01*
X52454051Y-33101574D01*
X52415987Y-33183609D01*
X52357851Y-33253757D01*
X52288148Y-33302305D01*
X52272498Y-33308975D01*
X52231504Y-33318124D01*
X52170862Y-33324529D01*
X52109570Y-33326710D01*
X51993684Y-33326710D01*
X51993684Y-33084407D01*
X51993307Y-32984471D01*
X51991013Y-32914069D01*
X51985062Y-32869313D01*
X51973715Y-32846315D01*
X51955229Y-32841189D01*
X51927864Y-32850048D01*
X51895845Y-32865917D01*
X51842408Y-32910184D01*
X51815785Y-32971699D01*
X51816653Y-33046885D01*
X51845629Y-33132053D01*
X51881389Y-33205659D01*
X51833096Y-33266734D01*
X51784803Y-33327810D01*
X51731715Y-33270351D01*
X51681555Y-33193641D01*
X51651312Y-33099302D01*
X51642849Y-32997827D01*
X51658026Y-32899711D01*
X51663176Y-32883881D01*
X51708209Y-32797647D01*
X51775348Y-32733501D01*
X51866595Y-32690091D01*
X51983956Y-32666064D01*
X51986471Y-32665784D01*
X52114373Y-32663633D01*
X52160003Y-32672329D01*
X52160003Y-32842105D01*
X52152987Y-32857697D01*
X52147612Y-32900029D01*
X52144543Y-32962434D01*
X52144079Y-33001981D01*
X52144370Y-33075728D01*
X52146217Y-33121840D01*
X52151088Y-33146100D01*
X52160445Y-33154294D01*
X52175755Y-33152206D01*
X52181678Y-33150455D01*
X52237332Y-33120560D01*
X52282185Y-33073542D01*
X52301895Y-33032049D01*
X52300705Y-32976926D01*
X52276125Y-32921068D01*
X52235430Y-32874212D01*
X52185892Y-32846094D01*
X52160003Y-32842105D01*
X52160003Y-32672329D01*
X52226867Y-32685074D01*
X52321273Y-32727611D01*
X52394912Y-32788747D01*
X52445107Y-32865985D01*
X52469178Y-32956830D01*
X52464446Y-33058784D01*
G37*
X52464446Y-33058784D02*
X52454051Y-33101574D01*
X52415987Y-33183609D01*
X52357851Y-33253757D01*
X52288148Y-33302305D01*
X52272498Y-33308975D01*
X52231504Y-33318124D01*
X52170862Y-33324529D01*
X52109570Y-33326710D01*
X51993684Y-33326710D01*
X51993684Y-33084407D01*
X51993307Y-32984471D01*
X51991013Y-32914069D01*
X51985062Y-32869313D01*
X51973715Y-32846315D01*
X51955229Y-32841189D01*
X51927864Y-32850048D01*
X51895845Y-32865917D01*
X51842408Y-32910184D01*
X51815785Y-32971699D01*
X51816653Y-33046885D01*
X51845629Y-33132053D01*
X51881389Y-33205659D01*
X51833096Y-33266734D01*
X51784803Y-33327810D01*
X51731715Y-33270351D01*
X51681555Y-33193641D01*
X51651312Y-33099302D01*
X51642849Y-32997827D01*
X51658026Y-32899711D01*
X51663176Y-32883881D01*
X51708209Y-32797647D01*
X51775348Y-32733501D01*
X51866595Y-32690091D01*
X51983956Y-32666064D01*
X51986471Y-32665784D01*
X52114373Y-32663633D01*
X52160003Y-32672329D01*
X52160003Y-32842105D01*
X52152987Y-32857697D01*
X52147612Y-32900029D01*
X52144543Y-32962434D01*
X52144079Y-33001981D01*
X52144370Y-33075728D01*
X52146217Y-33121840D01*
X52151088Y-33146100D01*
X52160445Y-33154294D01*
X52175755Y-33152206D01*
X52181678Y-33150455D01*
X52237332Y-33120560D01*
X52282185Y-33073542D01*
X52301895Y-33032049D01*
X52300705Y-32976926D01*
X52276125Y-32921068D01*
X52235430Y-32874212D01*
X52185892Y-32846094D01*
X52160003Y-32842105D01*
X52160003Y-32672329D01*
X52226867Y-32685074D01*
X52321273Y-32727611D01*
X52394912Y-32788747D01*
X52445107Y-32865985D01*
X52469178Y-32956830D01*
X52464446Y-33058784D01*
G36*
X52454581Y-32446576D02*
G01*
X52413451Y-32543395D01*
X52393429Y-32573890D01*
X52362660Y-32612865D01*
X52338467Y-32637331D01*
X52330587Y-32641578D01*
X52313101Y-32629584D01*
X52283430Y-32598887D01*
X52262721Y-32574312D01*
X52208664Y-32507046D01*
X52253358Y-32453930D01*
X52282211Y-32412884D01*
X52292171Y-32372863D01*
X52289739Y-32327059D01*
X52271655Y-32254324D01*
X52234119Y-32204256D01*
X52173438Y-32173829D01*
X52085919Y-32160017D01*
X52085864Y-32160013D01*
X51988042Y-32161208D01*
X51916270Y-32179772D01*
X51867405Y-32216804D01*
X51850857Y-32242050D01*
X51830251Y-32309097D01*
X51830238Y-32380709D01*
X51850232Y-32443015D01*
X51860000Y-32457763D01*
X51884953Y-32494750D01*
X51889042Y-32523668D01*
X51870470Y-32554856D01*
X51837113Y-32589336D01*
X51780804Y-32643912D01*
X51730858Y-32583318D01*
X51674487Y-32489698D01*
X51646707Y-32384125D01*
X51648718Y-32273798D01*
X51667138Y-32201343D01*
X51712690Y-32116656D01*
X51784350Y-32048927D01*
X51834934Y-32018157D01*
X51907512Y-31993236D01*
X51999431Y-31980766D01*
X52099052Y-31980670D01*
X52194733Y-31992870D01*
X52274831Y-32017290D01*
X52283044Y-32021136D01*
X52363587Y-32078093D01*
X52422229Y-32155209D01*
X52457753Y-32246390D01*
X52468943Y-32345543D01*
X52454581Y-32446576D01*
G37*
X52454581Y-32446576D02*
X52413451Y-32543395D01*
X52393429Y-32573890D01*
X52362660Y-32612865D01*
X52338467Y-32637331D01*
X52330587Y-32641578D01*
X52313101Y-32629584D01*
X52283430Y-32598887D01*
X52262721Y-32574312D01*
X52208664Y-32507046D01*
X52253358Y-32453930D01*
X52282211Y-32412884D01*
X52292171Y-32372863D01*
X52289739Y-32327059D01*
X52271655Y-32254324D01*
X52234119Y-32204256D01*
X52173438Y-32173829D01*
X52085919Y-32160017D01*
X52085864Y-32160013D01*
X51988042Y-32161208D01*
X51916270Y-32179772D01*
X51867405Y-32216804D01*
X51850857Y-32242050D01*
X51830251Y-32309097D01*
X51830238Y-32380709D01*
X51850232Y-32443015D01*
X51860000Y-32457763D01*
X51884953Y-32494750D01*
X51889042Y-32523668D01*
X51870470Y-32554856D01*
X51837113Y-32589336D01*
X51780804Y-32643912D01*
X51730858Y-32583318D01*
X51674487Y-32489698D01*
X51646707Y-32384125D01*
X51648718Y-32273798D01*
X51667138Y-32201343D01*
X51712690Y-32116656D01*
X51784350Y-32048927D01*
X51834934Y-32018157D01*
X51907512Y-31993236D01*
X51999431Y-31980766D01*
X52099052Y-31980670D01*
X52194733Y-31992870D01*
X52274831Y-32017290D01*
X52283044Y-32021136D01*
X52363587Y-32078093D01*
X52422229Y-32155209D01*
X52457753Y-32246390D01*
X52468943Y-32345543D01*
X52454581Y-32446576D01*
G36*
X52201467Y-30820131D02*
G01*
X52078911Y-30821710D01*
X51985821Y-30827481D01*
X51918349Y-30838991D01*
X51872645Y-30857790D01*
X51844861Y-30885426D01*
X51831146Y-30923448D01*
X51827642Y-30970526D01*
X51831568Y-31019832D01*
X51845911Y-31057283D01*
X51874522Y-31084428D01*
X51921249Y-31102815D01*
X51989942Y-31113993D01*
X52084450Y-31119511D01*
X52201467Y-31120921D01*
X52461579Y-31120921D01*
X52461579Y-31304736D01*
X51659474Y-31304736D01*
X51659474Y-31212828D01*
X51661719Y-31157422D01*
X51669604Y-31128891D01*
X51684572Y-31120921D01*
X51697903Y-31116120D01*
X51695083Y-31097014D01*
X51676217Y-31058504D01*
X51647113Y-30970239D01*
X51649175Y-30876623D01*
X51680779Y-30786921D01*
X51705743Y-30744204D01*
X51732774Y-30711621D01*
X51766595Y-30687817D01*
X51811932Y-30671439D01*
X51873511Y-30661131D01*
X51956057Y-30655541D01*
X52064295Y-30653312D01*
X52147996Y-30653026D01*
X52461579Y-30653026D01*
X52461579Y-30820131D01*
X52201467Y-30820131D01*
G37*
X52201467Y-30820131D02*
X52078911Y-30821710D01*
X51985821Y-30827481D01*
X51918349Y-30838991D01*
X51872645Y-30857790D01*
X51844861Y-30885426D01*
X51831146Y-30923448D01*
X51827642Y-30970526D01*
X51831568Y-31019832D01*
X51845911Y-31057283D01*
X51874522Y-31084428D01*
X51921249Y-31102815D01*
X51989942Y-31113993D01*
X52084450Y-31119511D01*
X52201467Y-31120921D01*
X52461579Y-31120921D01*
X52461579Y-31304736D01*
X51659474Y-31304736D01*
X51659474Y-31212828D01*
X51661719Y-31157422D01*
X51669604Y-31128891D01*
X51684572Y-31120921D01*
X51697903Y-31116120D01*
X51695083Y-31097014D01*
X51676217Y-31058504D01*
X51647113Y-30970239D01*
X51649175Y-30876623D01*
X51680779Y-30786921D01*
X51705743Y-30744204D01*
X51732774Y-30711621D01*
X51766595Y-30687817D01*
X51811932Y-30671439D01*
X51873511Y-30661131D01*
X51956057Y-30655541D01*
X52064295Y-30653312D01*
X52147996Y-30653026D01*
X52461579Y-30653026D01*
X52461579Y-30820131D01*
X52201467Y-30820131D01*
G36*
X52451690Y-30311669D02*
G01*
X52405660Y-30396192D01*
X52332994Y-30462321D01*
X52273894Y-30493478D01*
X52221695Y-30506855D01*
X52147281Y-30515522D01*
X52061558Y-30519237D01*
X51975431Y-30517754D01*
X51899807Y-30510831D01*
X51859416Y-30502745D01*
X51804160Y-30475465D01*
X51745470Y-30428220D01*
X51694148Y-30371282D01*
X51660995Y-30314924D01*
X51660469Y-30313550D01*
X51645982Y-30243616D01*
X51645623Y-30160737D01*
X51658812Y-30081977D01*
X51669383Y-30051566D01*
X51713799Y-29973239D01*
X51771993Y-29917143D01*
X51849035Y-29880286D01*
X51949999Y-29859680D01*
X52002884Y-29855018D01*
X52069337Y-29855613D01*
X52069337Y-30034736D01*
X51972370Y-30040770D01*
X51898477Y-30058138D01*
X51851264Y-30085740D01*
X51837763Y-30105404D01*
X51828349Y-30155787D01*
X51831136Y-30215673D01*
X51844684Y-30267449D01*
X51852138Y-30281027D01*
X51895549Y-30316849D01*
X51961986Y-30340493D01*
X52042839Y-30350558D01*
X52129498Y-30345642D01*
X52181651Y-30334655D01*
X52242049Y-30303109D01*
X52279803Y-30253311D01*
X52292857Y-30193337D01*
X52279151Y-30131264D01*
X52245628Y-30083582D01*
X52217969Y-30058525D01*
X52190706Y-30043900D01*
X52153810Y-30036929D01*
X52097250Y-30034833D01*
X52069337Y-30034736D01*
X52069337Y-29855613D01*
X52144006Y-29856282D01*
X52259729Y-29879265D01*
X52350059Y-29923972D01*
X52415000Y-29990405D01*
X52454555Y-30078565D01*
X52459142Y-30097495D01*
X52469910Y-30211266D01*
X52451690Y-30311669D01*
G37*
X52451690Y-30311669D02*
X52405660Y-30396192D01*
X52332994Y-30462321D01*
X52273894Y-30493478D01*
X52221695Y-30506855D01*
X52147281Y-30515522D01*
X52061558Y-30519237D01*
X51975431Y-30517754D01*
X51899807Y-30510831D01*
X51859416Y-30502745D01*
X51804160Y-30475465D01*
X51745470Y-30428220D01*
X51694148Y-30371282D01*
X51660995Y-30314924D01*
X51660469Y-30313550D01*
X51645982Y-30243616D01*
X51645623Y-30160737D01*
X51658812Y-30081977D01*
X51669383Y-30051566D01*
X51713799Y-29973239D01*
X51771993Y-29917143D01*
X51849035Y-29880286D01*
X51949999Y-29859680D01*
X52002884Y-29855018D01*
X52069337Y-29855613D01*
X52069337Y-30034736D01*
X51972370Y-30040770D01*
X51898477Y-30058138D01*
X51851264Y-30085740D01*
X51837763Y-30105404D01*
X51828349Y-30155787D01*
X51831136Y-30215673D01*
X51844684Y-30267449D01*
X51852138Y-30281027D01*
X51895549Y-30316849D01*
X51961986Y-30340493D01*
X52042839Y-30350558D01*
X52129498Y-30345642D01*
X52181651Y-30334655D01*
X52242049Y-30303109D01*
X52279803Y-30253311D01*
X52292857Y-30193337D01*
X52279151Y-30131264D01*
X52245628Y-30083582D01*
X52217969Y-30058525D01*
X52190706Y-30043900D01*
X52153810Y-30036929D01*
X52097250Y-30034833D01*
X52069337Y-30034736D01*
X52069337Y-29855613D01*
X52144006Y-29856282D01*
X52259729Y-29879265D01*
X52350059Y-29923972D01*
X52415000Y-29990405D01*
X52454555Y-30078565D01*
X52459142Y-30097495D01*
X52469910Y-30211266D01*
X52451690Y-30311669D01*
G36*
X52464453Y-29518628D02*
G01*
X52452452Y-29581908D01*
X52427352Y-29647557D01*
X52424152Y-29654572D01*
X52397974Y-29704356D01*
X52373647Y-29738834D01*
X52358063Y-29749978D01*
X52332647Y-29739366D01*
X52295147Y-29713588D01*
X52281148Y-29702146D01*
X52226046Y-29654992D01*
X52261914Y-29594201D01*
X52285808Y-29536347D01*
X52298580Y-29469500D01*
X52299387Y-29405394D01*
X52287385Y-29355764D01*
X52279895Y-29343854D01*
X52245550Y-29321172D01*
X52205987Y-29318416D01*
X52175080Y-29335388D01*
X52169087Y-29345427D01*
X52161643Y-29375510D01*
X52152894Y-29428389D01*
X52144533Y-29493575D01*
X52143222Y-29505600D01*
X52125112Y-29610297D01*
X52094349Y-29686232D01*
X52048093Y-29736592D01*
X51983503Y-29764564D01*
X51904613Y-29773278D01*
X51814935Y-29761240D01*
X51744514Y-29722151D01*
X51693223Y-29655855D01*
X51660933Y-29562194D01*
X51648193Y-29458223D01*
X51648346Y-29373438D01*
X51659917Y-29304665D01*
X51675891Y-29257697D01*
X51703725Y-29198350D01*
X51736027Y-29143506D01*
X51750245Y-29124013D01*
X51791165Y-29073881D01*
X51913523Y-29194803D01*
X51868033Y-29263543D01*
X51833867Y-29332488D01*
X51815996Y-29406111D01*
X51814111Y-29476883D01*
X51827899Y-29537274D01*
X51857051Y-29579757D01*
X51881648Y-29593474D01*
X51921096Y-29591417D01*
X51951263Y-29557330D01*
X51972094Y-29491308D01*
X51981721Y-29418974D01*
X52000090Y-29307652D01*
X52034746Y-29224952D01*
X52086703Y-29169765D01*
X52156977Y-29140988D01*
X52240293Y-29137001D01*
X52327319Y-29156693D01*
X52393098Y-29201589D01*
X52437932Y-29272091D01*
X52462121Y-29368601D01*
X52466863Y-29440100D01*
X52464453Y-29518628D01*
G37*
X52464453Y-29518628D02*
X52452452Y-29581908D01*
X52427352Y-29647557D01*
X52424152Y-29654572D01*
X52397974Y-29704356D01*
X52373647Y-29738834D01*
X52358063Y-29749978D01*
X52332647Y-29739366D01*
X52295147Y-29713588D01*
X52281148Y-29702146D01*
X52226046Y-29654992D01*
X52261914Y-29594201D01*
X52285808Y-29536347D01*
X52298580Y-29469500D01*
X52299387Y-29405394D01*
X52287385Y-29355764D01*
X52279895Y-29343854D01*
X52245550Y-29321172D01*
X52205987Y-29318416D01*
X52175080Y-29335388D01*
X52169087Y-29345427D01*
X52161643Y-29375510D01*
X52152894Y-29428389D01*
X52144533Y-29493575D01*
X52143222Y-29505600D01*
X52125112Y-29610297D01*
X52094349Y-29686232D01*
X52048093Y-29736592D01*
X51983503Y-29764564D01*
X51904613Y-29773278D01*
X51814935Y-29761240D01*
X51744514Y-29722151D01*
X51693223Y-29655855D01*
X51660933Y-29562194D01*
X51648193Y-29458223D01*
X51648346Y-29373438D01*
X51659917Y-29304665D01*
X51675891Y-29257697D01*
X51703725Y-29198350D01*
X51736027Y-29143506D01*
X51750245Y-29124013D01*
X51791165Y-29073881D01*
X51913523Y-29194803D01*
X51868033Y-29263543D01*
X51833867Y-29332488D01*
X51815996Y-29406111D01*
X51814111Y-29476883D01*
X51827899Y-29537274D01*
X51857051Y-29579757D01*
X51881648Y-29593474D01*
X51921096Y-29591417D01*
X51951263Y-29557330D01*
X51972094Y-29491308D01*
X51981721Y-29418974D01*
X52000090Y-29307652D01*
X52034746Y-29224952D01*
X52086703Y-29169765D01*
X52156977Y-29140988D01*
X52240293Y-29137001D01*
X52327319Y-29156693D01*
X52393098Y-29201589D01*
X52437932Y-29272091D01*
X52462121Y-29368601D01*
X52466863Y-29440100D01*
X52464453Y-29518628D01*
G36*
X52442973Y-27697018D02*
G01*
X52435134Y-27713670D01*
X52392914Y-27771305D01*
X52331300Y-27825805D01*
X52263457Y-27866499D01*
X52232266Y-27878074D01*
X52176551Y-27888634D01*
X52109219Y-27894931D01*
X52081415Y-27895696D01*
X51993684Y-27895789D01*
X51993684Y-27390850D01*
X51947730Y-27401613D01*
X51893380Y-27428033D01*
X51846409Y-27474222D01*
X51816152Y-27529172D01*
X51809869Y-27564189D01*
X51817494Y-27611677D01*
X51836617Y-27668335D01*
X51845416Y-27687582D01*
X51880964Y-27758759D01*
X51834633Y-27819502D01*
X51803297Y-27854552D01*
X51777433Y-27873202D01*
X51769842Y-27874147D01*
X51751444Y-27857485D01*
X51723485Y-27820970D01*
X51701673Y-27787828D01*
X51662463Y-27698393D01*
X51644715Y-27598129D01*
X51649330Y-27498754D01*
X51673449Y-27419539D01*
X51725116Y-27337880D01*
X51793144Y-27279849D01*
X51881157Y-27243546D01*
X51992784Y-27227072D01*
X52043862Y-27225611D01*
X52160909Y-27231457D01*
X52164314Y-27232175D01*
X52164314Y-27399489D01*
X52153338Y-27404097D01*
X52147285Y-27423036D01*
X52144690Y-27462098D01*
X52144090Y-27527077D01*
X52144079Y-27552097D01*
X52144986Y-27628221D01*
X52148280Y-27676496D01*
X52154819Y-27702460D01*
X52165463Y-27711648D01*
X52168881Y-27711973D01*
X52196044Y-27701487D01*
X52234097Y-27675242D01*
X52247421Y-27663959D01*
X52285104Y-27622072D01*
X52299920Y-27578409D01*
X52301158Y-27554885D01*
X52285671Y-27491243D01*
X52244070Y-27437873D01*
X52183647Y-27404019D01*
X52181678Y-27403419D01*
X52164314Y-27399489D01*
X52164314Y-27232175D01*
X52253072Y-27250899D01*
X52326810Y-27285922D01*
X52379152Y-27328756D01*
X52435908Y-27407948D01*
X52466238Y-27501040D01*
X52468979Y-27600055D01*
X52442973Y-27697018D01*
G37*
X52442973Y-27697018D02*
X52435134Y-27713670D01*
X52392914Y-27771305D01*
X52331300Y-27825805D01*
X52263457Y-27866499D01*
X52232266Y-27878074D01*
X52176551Y-27888634D01*
X52109219Y-27894931D01*
X52081415Y-27895696D01*
X51993684Y-27895789D01*
X51993684Y-27390850D01*
X51947730Y-27401613D01*
X51893380Y-27428033D01*
X51846409Y-27474222D01*
X51816152Y-27529172D01*
X51809869Y-27564189D01*
X51817494Y-27611677D01*
X51836617Y-27668335D01*
X51845416Y-27687582D01*
X51880964Y-27758759D01*
X51834633Y-27819502D01*
X51803297Y-27854552D01*
X51777433Y-27873202D01*
X51769842Y-27874147D01*
X51751444Y-27857485D01*
X51723485Y-27820970D01*
X51701673Y-27787828D01*
X51662463Y-27698393D01*
X51644715Y-27598129D01*
X51649330Y-27498754D01*
X51673449Y-27419539D01*
X51725116Y-27337880D01*
X51793144Y-27279849D01*
X51881157Y-27243546D01*
X51992784Y-27227072D01*
X52043862Y-27225611D01*
X52160909Y-27231457D01*
X52164314Y-27232175D01*
X52164314Y-27399489D01*
X52153338Y-27404097D01*
X52147285Y-27423036D01*
X52144690Y-27462098D01*
X52144090Y-27527077D01*
X52144079Y-27552097D01*
X52144986Y-27628221D01*
X52148280Y-27676496D01*
X52154819Y-27702460D01*
X52165463Y-27711648D01*
X52168881Y-27711973D01*
X52196044Y-27701487D01*
X52234097Y-27675242D01*
X52247421Y-27663959D01*
X52285104Y-27622072D01*
X52299920Y-27578409D01*
X52301158Y-27554885D01*
X52285671Y-27491243D01*
X52244070Y-27437873D01*
X52183647Y-27404019D01*
X52181678Y-27403419D01*
X52164314Y-27399489D01*
X52164314Y-27232175D01*
X52253072Y-27250899D01*
X52326810Y-27285922D01*
X52379152Y-27328756D01*
X52435908Y-27407948D01*
X52466238Y-27501040D01*
X52468979Y-27600055D01*
X52442973Y-27697018D01*
G36*
X52452896Y-26126784D02*
G01*
X52414246Y-26214205D01*
X52349710Y-26280570D01*
X52259188Y-26325976D01*
X52142582Y-26350518D01*
X52124376Y-26352277D01*
X51996016Y-26353656D01*
X51883504Y-26335784D01*
X51792312Y-26299750D01*
X51762978Y-26280455D01*
X51700894Y-26213245D01*
X51660684Y-26127650D01*
X51643997Y-26031890D01*
X51652483Y-25934187D01*
X51678620Y-25859917D01*
X51722665Y-25796047D01*
X51780413Y-25743846D01*
X51781764Y-25742943D01*
X51817407Y-25721744D01*
X51853248Y-25707967D01*
X51898481Y-25699624D01*
X51962299Y-25694727D01*
X52014632Y-25692569D01*
X52062090Y-25691671D01*
X52062090Y-25858743D01*
X52014846Y-25860376D01*
X51951954Y-25866304D01*
X51911593Y-25876761D01*
X51882878Y-25895619D01*
X51866104Y-25913281D01*
X51830984Y-25975894D01*
X51826290Y-26041408D01*
X51851560Y-26102421D01*
X51879876Y-26132928D01*
X51908411Y-26154911D01*
X51935716Y-26167769D01*
X51971250Y-26173412D01*
X52024476Y-26173751D01*
X52073494Y-26172012D01*
X52143518Y-26168271D01*
X52188936Y-26162341D01*
X52218560Y-26151653D01*
X52241203Y-26133639D01*
X52254145Y-26119363D01*
X52288140Y-26059651D01*
X52289835Y-25995234D01*
X52269699Y-25941219D01*
X52227648Y-25895140D01*
X52158572Y-25867689D01*
X52062090Y-25858743D01*
X52062090Y-25691671D01*
X52118701Y-25690599D01*
X52196532Y-25693964D01*
X52255070Y-25704045D01*
X52301263Y-25722226D01*
X52342058Y-25749890D01*
X52354172Y-25760146D01*
X52414526Y-25824278D01*
X52449780Y-25893066D01*
X52464550Y-25977189D01*
X52465757Y-26018209D01*
X52452896Y-26126784D01*
G37*
X52452896Y-26126784D02*
X52414246Y-26214205D01*
X52349710Y-26280570D01*
X52259188Y-26325976D01*
X52142582Y-26350518D01*
X52124376Y-26352277D01*
X51996016Y-26353656D01*
X51883504Y-26335784D01*
X51792312Y-26299750D01*
X51762978Y-26280455D01*
X51700894Y-26213245D01*
X51660684Y-26127650D01*
X51643997Y-26031890D01*
X51652483Y-25934187D01*
X51678620Y-25859917D01*
X51722665Y-25796047D01*
X51780413Y-25743846D01*
X51781764Y-25742943D01*
X51817407Y-25721744D01*
X51853248Y-25707967D01*
X51898481Y-25699624D01*
X51962299Y-25694727D01*
X52014632Y-25692569D01*
X52062090Y-25691671D01*
X52062090Y-25858743D01*
X52014846Y-25860376D01*
X51951954Y-25866304D01*
X51911593Y-25876761D01*
X51882878Y-25895619D01*
X51866104Y-25913281D01*
X51830984Y-25975894D01*
X51826290Y-26041408D01*
X51851560Y-26102421D01*
X51879876Y-26132928D01*
X51908411Y-26154911D01*
X51935716Y-26167769D01*
X51971250Y-26173412D01*
X52024476Y-26173751D01*
X52073494Y-26172012D01*
X52143518Y-26168271D01*
X52188936Y-26162341D01*
X52218560Y-26151653D01*
X52241203Y-26133639D01*
X52254145Y-26119363D01*
X52288140Y-26059651D01*
X52289835Y-25995234D01*
X52269699Y-25941219D01*
X52227648Y-25895140D01*
X52158572Y-25867689D01*
X52062090Y-25858743D01*
X52062090Y-25691671D01*
X52118701Y-25690599D01*
X52196532Y-25693964D01*
X52255070Y-25704045D01*
X52301263Y-25722226D01*
X52342058Y-25749890D01*
X52354172Y-25760146D01*
X52414526Y-25824278D01*
X52449780Y-25893066D01*
X52464550Y-25977189D01*
X52465757Y-26018209D01*
X52452896Y-26126784D01*
G36*
X51203922Y-32201193D02*
G01*
X51183155Y-32281068D01*
X51140295Y-32347962D01*
X51108277Y-32380351D01*
X51032587Y-32433445D01*
X50944784Y-32463873D01*
X50836850Y-32474327D01*
X50828125Y-32474380D01*
X50740395Y-32474473D01*
X50740395Y-31969534D01*
X50694441Y-31980298D01*
X50652822Y-31999732D01*
X50609456Y-32033745D01*
X50602533Y-32040860D01*
X50565065Y-32102003D01*
X50558711Y-32171729D01*
X50583362Y-32251987D01*
X50590000Y-32265592D01*
X50610181Y-32307319D01*
X50621679Y-32335268D01*
X50622742Y-32340145D01*
X50612417Y-32357168D01*
X50587155Y-32389633D01*
X50573350Y-32406114D01*
X50541639Y-32440264D01*
X50520701Y-32451478D01*
X50501440Y-32443695D01*
X50496173Y-32439535D01*
X50473122Y-32411357D01*
X50445108Y-32364862D01*
X50428754Y-32332434D01*
X50399941Y-32240385D01*
X50390605Y-32138476D01*
X50401668Y-32041963D01*
X50409588Y-32014934D01*
X50454419Y-31931276D01*
X50523402Y-31869266D01*
X50617206Y-31828545D01*
X50736502Y-31808755D01*
X50798882Y-31806582D01*
X50889702Y-31812926D01*
X50889702Y-31973157D01*
X50882988Y-31988655D01*
X50877720Y-32030312D01*
X50874611Y-32090876D01*
X50874079Y-32131907D01*
X50874592Y-32205711D01*
X50876994Y-32252293D01*
X50882578Y-32277848D01*
X50892639Y-32288569D01*
X50907237Y-32290657D01*
X50952204Y-32276331D01*
X50996647Y-32240262D01*
X51030758Y-32192815D01*
X51044712Y-32145349D01*
X51032334Y-32080879D01*
X50996548Y-32025070D01*
X50944967Y-31986374D01*
X50889702Y-31973157D01*
X50889702Y-31812926D01*
X50931134Y-31815821D01*
X51036502Y-31844336D01*
X51115822Y-31892729D01*
X51169929Y-31961604D01*
X51199657Y-32051565D01*
X51205382Y-32100300D01*
X51203922Y-32201193D01*
G37*
X51203922Y-32201193D02*
X51183155Y-32281068D01*
X51140295Y-32347962D01*
X51108277Y-32380351D01*
X51032587Y-32433445D01*
X50944784Y-32463873D01*
X50836850Y-32474327D01*
X50828125Y-32474380D01*
X50740395Y-32474473D01*
X50740395Y-31969534D01*
X50694441Y-31980298D01*
X50652822Y-31999732D01*
X50609456Y-32033745D01*
X50602533Y-32040860D01*
X50565065Y-32102003D01*
X50558711Y-32171729D01*
X50583362Y-32251987D01*
X50590000Y-32265592D01*
X50610181Y-32307319D01*
X50621679Y-32335268D01*
X50622742Y-32340145D01*
X50612417Y-32357168D01*
X50587155Y-32389633D01*
X50573350Y-32406114D01*
X50541639Y-32440264D01*
X50520701Y-32451478D01*
X50501440Y-32443695D01*
X50496173Y-32439535D01*
X50473122Y-32411357D01*
X50445108Y-32364862D01*
X50428754Y-32332434D01*
X50399941Y-32240385D01*
X50390605Y-32138476D01*
X50401668Y-32041963D01*
X50409588Y-32014934D01*
X50454419Y-31931276D01*
X50523402Y-31869266D01*
X50617206Y-31828545D01*
X50736502Y-31808755D01*
X50798882Y-31806582D01*
X50889702Y-31812926D01*
X50889702Y-31973157D01*
X50882988Y-31988655D01*
X50877720Y-32030312D01*
X50874611Y-32090876D01*
X50874079Y-32131907D01*
X50874592Y-32205711D01*
X50876994Y-32252293D01*
X50882578Y-32277848D01*
X50892639Y-32288569D01*
X50907237Y-32290657D01*
X50952204Y-32276331D01*
X50996647Y-32240262D01*
X51030758Y-32192815D01*
X51044712Y-32145349D01*
X51032334Y-32080879D01*
X50996548Y-32025070D01*
X50944967Y-31986374D01*
X50889702Y-31973157D01*
X50889702Y-31812926D01*
X50931134Y-31815821D01*
X51036502Y-31844336D01*
X51115822Y-31892729D01*
X51169929Y-31961604D01*
X51199657Y-32051565D01*
X51205382Y-32100300D01*
X51203922Y-32201193D01*
G36*
X51208553Y-31673167D02*
G01*
X51195888Y-31737408D01*
X51177136Y-31773980D01*
X51145983Y-31812453D01*
X51076873Y-31757717D01*
X51035021Y-31723969D01*
X51014602Y-31701053D01*
X51011483Y-31678279D01*
X51021528Y-31644956D01*
X51027211Y-31629314D01*
X51035596Y-31565542D01*
X51017622Y-31507140D01*
X50977018Y-31464264D01*
X50964071Y-31457299D01*
X50929776Y-31449713D01*
X50866573Y-31443859D01*
X50778940Y-31440011D01*
X50671360Y-31438443D01*
X50656056Y-31438421D01*
X50389474Y-31438421D01*
X50389474Y-31254605D01*
X51208290Y-31254605D01*
X51208290Y-31346513D01*
X51206906Y-31399507D01*
X51200748Y-31427115D01*
X51186806Y-31437324D01*
X51173656Y-31438421D01*
X51139022Y-31438421D01*
X51173656Y-31482450D01*
X51197284Y-31532937D01*
X51208967Y-31600760D01*
X51208553Y-31673167D01*
G37*
X51208553Y-31673167D02*
X51195888Y-31737408D01*
X51177136Y-31773980D01*
X51145983Y-31812453D01*
X51076873Y-31757717D01*
X51035021Y-31723969D01*
X51014602Y-31701053D01*
X51011483Y-31678279D01*
X51021528Y-31644956D01*
X51027211Y-31629314D01*
X51035596Y-31565542D01*
X51017622Y-31507140D01*
X50977018Y-31464264D01*
X50964071Y-31457299D01*
X50929776Y-31449713D01*
X50866573Y-31443859D01*
X50778940Y-31440011D01*
X50671360Y-31438443D01*
X50656056Y-31438421D01*
X50389474Y-31438421D01*
X50389474Y-31254605D01*
X51208290Y-31254605D01*
X51208290Y-31346513D01*
X51206906Y-31399507D01*
X51200748Y-31427115D01*
X51186806Y-31437324D01*
X51173656Y-31438421D01*
X51139022Y-31438421D01*
X51173656Y-31482450D01*
X51197284Y-31532937D01*
X51208967Y-31600760D01*
X51208553Y-31673167D01*
G36*
X51203327Y-30879992D02*
G01*
X51186220Y-30950427D01*
X51177156Y-30970787D01*
X51153417Y-31010253D01*
X51126679Y-31040541D01*
X51092301Y-31062952D01*
X51045640Y-31078786D01*
X50982054Y-31089343D01*
X50896901Y-31095924D01*
X50785538Y-31099828D01*
X50711151Y-31101310D01*
X50389474Y-31106765D01*
X50389474Y-31013580D01*
X50391844Y-30957047D01*
X50399945Y-30927922D01*
X50413549Y-30920394D01*
X50428259Y-30916420D01*
X50425446Y-30898652D01*
X50413652Y-30874440D01*
X50395573Y-30813828D01*
X50390701Y-30735929D01*
X50398670Y-30653995D01*
X50419111Y-30581281D01*
X50421949Y-30574759D01*
X50468635Y-30508302D01*
X50533536Y-30464491D01*
X50609400Y-30444332D01*
X50636656Y-30445872D01*
X50636656Y-30610345D01*
X50599976Y-30624837D01*
X50573691Y-30667805D01*
X50559583Y-30737129D01*
X50557710Y-30774177D01*
X50562506Y-30835919D01*
X50581142Y-30876960D01*
X50590000Y-30886973D01*
X50638194Y-30914100D01*
X50681908Y-30920394D01*
X50740395Y-30920394D01*
X50740395Y-30838930D01*
X50735568Y-30744234D01*
X50720387Y-30677813D01*
X50693800Y-30635846D01*
X50681948Y-30626449D01*
X50636656Y-30610345D01*
X50636656Y-30445872D01*
X50688974Y-30448829D01*
X50765005Y-30478985D01*
X50816388Y-30520131D01*
X50838603Y-30545052D01*
X50853202Y-30569448D01*
X50862103Y-30601191D01*
X50867225Y-30648152D01*
X50870485Y-30718204D01*
X50871423Y-30745990D01*
X50877121Y-30920394D01*
X50929909Y-30920138D01*
X50985397Y-30913384D01*
X51018948Y-30888964D01*
X51040382Y-30839630D01*
X51040764Y-30838306D01*
X51049192Y-30768360D01*
X51038184Y-30699914D01*
X51011415Y-30649047D01*
X50998197Y-30628637D01*
X51000026Y-30606654D01*
X51019176Y-30572826D01*
X51032692Y-30552961D01*
X51061568Y-30514106D01*
X51083214Y-30490038D01*
X51089411Y-30486176D01*
X51121481Y-30502079D01*
X51159781Y-30549065D01*
X51172703Y-30569473D01*
X51194959Y-30628143D01*
X51207568Y-30707212D01*
X51210400Y-30795041D01*
X51203327Y-30879992D01*
G37*
X51203327Y-30879992D02*
X51186220Y-30950427D01*
X51177156Y-30970787D01*
X51153417Y-31010253D01*
X51126679Y-31040541D01*
X51092301Y-31062952D01*
X51045640Y-31078786D01*
X50982054Y-31089343D01*
X50896901Y-31095924D01*
X50785538Y-31099828D01*
X50711151Y-31101310D01*
X50389474Y-31106765D01*
X50389474Y-31013580D01*
X50391844Y-30957047D01*
X50399945Y-30927922D01*
X50413549Y-30920394D01*
X50428259Y-30916420D01*
X50425446Y-30898652D01*
X50413652Y-30874440D01*
X50395573Y-30813828D01*
X50390701Y-30735929D01*
X50398670Y-30653995D01*
X50419111Y-30581281D01*
X50421949Y-30574759D01*
X50468635Y-30508302D01*
X50533536Y-30464491D01*
X50609400Y-30444332D01*
X50636656Y-30445872D01*
X50636656Y-30610345D01*
X50599976Y-30624837D01*
X50573691Y-30667805D01*
X50559583Y-30737129D01*
X50557710Y-30774177D01*
X50562506Y-30835919D01*
X50581142Y-30876960D01*
X50590000Y-30886973D01*
X50638194Y-30914100D01*
X50681908Y-30920394D01*
X50740395Y-30920394D01*
X50740395Y-30838930D01*
X50735568Y-30744234D01*
X50720387Y-30677813D01*
X50693800Y-30635846D01*
X50681948Y-30626449D01*
X50636656Y-30610345D01*
X50636656Y-30445872D01*
X50688974Y-30448829D01*
X50765005Y-30478985D01*
X50816388Y-30520131D01*
X50838603Y-30545052D01*
X50853202Y-30569448D01*
X50862103Y-30601191D01*
X50867225Y-30648152D01*
X50870485Y-30718204D01*
X50871423Y-30745990D01*
X50877121Y-30920394D01*
X50929909Y-30920138D01*
X50985397Y-30913384D01*
X51018948Y-30888964D01*
X51040382Y-30839630D01*
X51040764Y-30838306D01*
X51049192Y-30768360D01*
X51038184Y-30699914D01*
X51011415Y-30649047D01*
X50998197Y-30628637D01*
X51000026Y-30606654D01*
X51019176Y-30572826D01*
X51032692Y-30552961D01*
X51061568Y-30514106D01*
X51083214Y-30490038D01*
X51089411Y-30486176D01*
X51121481Y-30502079D01*
X51159781Y-30549065D01*
X51172703Y-30569473D01*
X51194959Y-30628143D01*
X51207568Y-30707212D01*
X51210400Y-30795041D01*
X51203327Y-30879992D01*
G36*
X51204896Y-29874130D02*
G01*
X51199934Y-29940220D01*
X50940921Y-30026626D01*
X50681908Y-30113031D01*
X50773816Y-30140124D01*
X50830616Y-30156428D01*
X50907375Y-30177875D01*
X50991749Y-30201035D01*
X51037007Y-30213280D01*
X51208290Y-30259344D01*
X51208290Y-30449387D01*
X51028651Y-30392582D01*
X50940296Y-30364607D01*
X50833719Y-30330813D01*
X50722546Y-30295520D01*
X50623421Y-30264013D01*
X50397829Y-30192250D01*
X50387747Y-30037286D01*
X50526472Y-29995270D01*
X50612649Y-29969359D01*
X50707653Y-29941083D01*
X50791559Y-29916369D01*
X50794898Y-29915394D01*
X50851752Y-29896935D01*
X50890544Y-29880649D01*
X50905213Y-29869242D01*
X50903517Y-29866898D01*
X50880775Y-29858671D01*
X50832060Y-29843038D01*
X50763498Y-29821904D01*
X50681215Y-29797170D01*
X50635954Y-29783787D01*
X50389474Y-29711311D01*
X50389474Y-29557495D01*
X50777994Y-29434531D01*
X50886978Y-29399988D01*
X50985952Y-29368521D01*
X51070264Y-29341616D01*
X51135266Y-29320759D01*
X51176308Y-29307438D01*
X51188299Y-29303388D01*
X51200577Y-29306594D01*
X51205954Y-29331765D01*
X51205416Y-29384146D01*
X51205010Y-29392345D01*
X51199934Y-29489482D01*
X50965987Y-29553100D01*
X50880667Y-29576484D01*
X50805665Y-29597381D01*
X50747493Y-29613951D01*
X50712663Y-29624354D01*
X50706984Y-29626276D01*
X50713514Y-29634241D01*
X50747346Y-29650304D01*
X50803873Y-29672621D01*
X50878490Y-29699345D01*
X50945893Y-29721937D01*
X51209857Y-29808041D01*
X51204896Y-29874130D01*
G37*
X51204896Y-29874130D02*
X51199934Y-29940220D01*
X50940921Y-30026626D01*
X50681908Y-30113031D01*
X50773816Y-30140124D01*
X50830616Y-30156428D01*
X50907375Y-30177875D01*
X50991749Y-30201035D01*
X51037007Y-30213280D01*
X51208290Y-30259344D01*
X51208290Y-30449387D01*
X51028651Y-30392582D01*
X50940296Y-30364607D01*
X50833719Y-30330813D01*
X50722546Y-30295520D01*
X50623421Y-30264013D01*
X50397829Y-30192250D01*
X50387747Y-30037286D01*
X50526472Y-29995270D01*
X50612649Y-29969359D01*
X50707653Y-29941083D01*
X50791559Y-29916369D01*
X50794898Y-29915394D01*
X50851752Y-29896935D01*
X50890544Y-29880649D01*
X50905213Y-29869242D01*
X50903517Y-29866898D01*
X50880775Y-29858671D01*
X50832060Y-29843038D01*
X50763498Y-29821904D01*
X50681215Y-29797170D01*
X50635954Y-29783787D01*
X50389474Y-29711311D01*
X50389474Y-29557495D01*
X50777994Y-29434531D01*
X50886978Y-29399988D01*
X50985952Y-29368521D01*
X51070264Y-29341616D01*
X51135266Y-29320759D01*
X51176308Y-29307438D01*
X51188299Y-29303388D01*
X51200577Y-29306594D01*
X51205954Y-29331765D01*
X51205416Y-29384146D01*
X51205010Y-29392345D01*
X51199934Y-29489482D01*
X50965987Y-29553100D01*
X50880667Y-29576484D01*
X50805665Y-29597381D01*
X50747493Y-29613951D01*
X50712663Y-29624354D01*
X50706984Y-29626276D01*
X50713514Y-29634241D01*
X50747346Y-29650304D01*
X50803873Y-29672621D01*
X50878490Y-29699345D01*
X50945893Y-29721937D01*
X51209857Y-29808041D01*
X51204896Y-29874130D01*
G36*
X50389474Y-29232631D02*
G01*
X50389474Y-29140723D01*
X50391038Y-29087377D01*
X50397515Y-29059593D01*
X50411582Y-29049590D01*
X50421094Y-29048815D01*
X50440168Y-29047128D01*
X50443826Y-29036490D01*
X50432068Y-29008535D01*
X50421094Y-28986795D01*
X50395089Y-28903332D01*
X50393584Y-28812604D01*
X50412979Y-28738842D01*
X50459835Y-28670154D01*
X50528996Y-28617794D01*
X50610573Y-28589122D01*
X50615134Y-28588392D01*
X50664899Y-28584132D01*
X50736341Y-28582014D01*
X50790374Y-28582184D01*
X50790374Y-28764720D01*
X50718559Y-28768949D01*
X50659366Y-28778568D01*
X50625940Y-28791590D01*
X50580260Y-28840856D01*
X50563885Y-28899350D01*
X50577127Y-28959671D01*
X50616627Y-29011217D01*
X50643193Y-29030738D01*
X50674894Y-29042152D01*
X50721168Y-29047498D01*
X50790672Y-29048815D01*
X50859501Y-29046458D01*
X50919974Y-29040233D01*
X50960444Y-29031408D01*
X50964071Y-29029937D01*
X51007198Y-28994347D01*
X51030876Y-28942400D01*
X51034699Y-28884278D01*
X51018262Y-28830160D01*
X50981160Y-28790226D01*
X50973778Y-28786083D01*
X50928761Y-28773116D01*
X50864033Y-28766052D01*
X50790374Y-28764720D01*
X50790374Y-28582184D01*
X50817770Y-28582271D01*
X50861595Y-28583472D01*
X50970012Y-28591645D01*
X51051412Y-28608630D01*
X51111588Y-28636887D01*
X51156334Y-28678872D01*
X51182600Y-28719632D01*
X51201065Y-28776581D01*
X51207398Y-28847411D01*
X51202240Y-28919941D01*
X51186231Y-28981986D01*
X51167080Y-29014768D01*
X51136268Y-29048815D01*
X51525790Y-29048815D01*
X51525790Y-29232631D01*
X50389474Y-29232631D01*
G37*
X50389474Y-29232631D02*
X50389474Y-29140723D01*
X50391038Y-29087377D01*
X50397515Y-29059593D01*
X50411582Y-29049590D01*
X50421094Y-29048815D01*
X50440168Y-29047128D01*
X50443826Y-29036490D01*
X50432068Y-29008535D01*
X50421094Y-28986795D01*
X50395089Y-28903332D01*
X50393584Y-28812604D01*
X50412979Y-28738842D01*
X50459835Y-28670154D01*
X50528996Y-28617794D01*
X50610573Y-28589122D01*
X50615134Y-28588392D01*
X50664899Y-28584132D01*
X50736341Y-28582014D01*
X50790374Y-28582184D01*
X50790374Y-28764720D01*
X50718559Y-28768949D01*
X50659366Y-28778568D01*
X50625940Y-28791590D01*
X50580260Y-28840856D01*
X50563885Y-28899350D01*
X50577127Y-28959671D01*
X50616627Y-29011217D01*
X50643193Y-29030738D01*
X50674894Y-29042152D01*
X50721168Y-29047498D01*
X50790672Y-29048815D01*
X50859501Y-29046458D01*
X50919974Y-29040233D01*
X50960444Y-29031408D01*
X50964071Y-29029937D01*
X51007198Y-28994347D01*
X51030876Y-28942400D01*
X51034699Y-28884278D01*
X51018262Y-28830160D01*
X50981160Y-28790226D01*
X50973778Y-28786083D01*
X50928761Y-28773116D01*
X50864033Y-28766052D01*
X50790374Y-28764720D01*
X50790374Y-28582184D01*
X50817770Y-28582271D01*
X50861595Y-28583472D01*
X50970012Y-28591645D01*
X51051412Y-28608630D01*
X51111588Y-28636887D01*
X51156334Y-28678872D01*
X51182600Y-28719632D01*
X51201065Y-28776581D01*
X51207398Y-28847411D01*
X51202240Y-28919941D01*
X51186231Y-28981986D01*
X51167080Y-29014768D01*
X51136268Y-29048815D01*
X51525790Y-29048815D01*
X51525790Y-29232631D01*
X50389474Y-29232631D01*
G36*
X51206514Y-28179881D02*
G01*
X51199018Y-28204888D01*
X51182549Y-28212950D01*
X51175114Y-28213289D01*
X51154406Y-28214736D01*
X51151155Y-28224698D01*
X51165352Y-28251612D01*
X51175052Y-28267598D01*
X51195825Y-28318033D01*
X51206096Y-28378272D01*
X51206886Y-28441434D01*
X51199214Y-28500637D01*
X51184102Y-28549002D01*
X51162568Y-28579646D01*
X51135634Y-28585689D01*
X51128340Y-28582639D01*
X51098063Y-28560406D01*
X51060825Y-28525930D01*
X51054805Y-28519694D01*
X51027125Y-28486833D01*
X51018182Y-28458480D01*
X51024424Y-28418827D01*
X51028571Y-28402942D01*
X51038533Y-28353509D01*
X51034053Y-28318752D01*
X51018254Y-28289400D01*
X50997051Y-28262513D01*
X50970386Y-28242710D01*
X50933173Y-28228948D01*
X50880327Y-28220184D01*
X50806763Y-28215374D01*
X50707395Y-28213474D01*
X50647399Y-28213289D01*
X50389474Y-28213289D01*
X50389474Y-28046184D01*
X51208290Y-28046184D01*
X51208290Y-28129736D01*
X51206514Y-28179881D01*
G37*
X51206514Y-28179881D02*
X51199018Y-28204888D01*
X51182549Y-28212950D01*
X51175114Y-28213289D01*
X51154406Y-28214736D01*
X51151155Y-28224698D01*
X51165352Y-28251612D01*
X51175052Y-28267598D01*
X51195825Y-28318033D01*
X51206096Y-28378272D01*
X51206886Y-28441434D01*
X51199214Y-28500637D01*
X51184102Y-28549002D01*
X51162568Y-28579646D01*
X51135634Y-28585689D01*
X51128340Y-28582639D01*
X51098063Y-28560406D01*
X51060825Y-28525930D01*
X51054805Y-28519694D01*
X51027125Y-28486833D01*
X51018182Y-28458480D01*
X51024424Y-28418827D01*
X51028571Y-28402942D01*
X51038533Y-28353509D01*
X51034053Y-28318752D01*
X51018254Y-28289400D01*
X50997051Y-28262513D01*
X50970386Y-28242710D01*
X50933173Y-28228948D01*
X50880327Y-28220184D01*
X50806763Y-28215374D01*
X50707395Y-28213474D01*
X50647399Y-28213289D01*
X50389474Y-28213289D01*
X50389474Y-28046184D01*
X51208290Y-28046184D01*
X51208290Y-28129736D01*
X51206514Y-28179881D01*
G36*
X51201816Y-27660457D02*
G01*
X51180840Y-27739070D01*
X51142820Y-27798916D01*
X51093022Y-27841147D01*
X51071770Y-27854275D01*
X51049508Y-27863968D01*
X51021030Y-27870744D01*
X50981129Y-27875123D01*
X50924599Y-27877624D01*
X50846233Y-27878768D01*
X50740824Y-27879072D01*
X50712858Y-27879078D01*
X50389474Y-27879078D01*
X50389474Y-27798868D01*
X50393057Y-27747706D01*
X50402134Y-27709877D01*
X50407732Y-27700399D01*
X50417394Y-27674488D01*
X50407732Y-27648024D01*
X50395670Y-27604452D01*
X50390815Y-27541160D01*
X50392922Y-27471010D01*
X50401744Y-27406860D01*
X50413063Y-27369407D01*
X50459588Y-27296933D01*
X50524154Y-27251640D01*
X50610000Y-27231278D01*
X50612204Y-27231088D01*
X50650287Y-27232875D01*
X50650287Y-27394473D01*
X50606970Y-27408601D01*
X50582592Y-27431612D01*
X50564155Y-27477804D01*
X50556795Y-27538775D01*
X50560417Y-27600949D01*
X50574926Y-27650751D01*
X50584235Y-27664703D01*
X50627247Y-27689085D01*
X50676143Y-27695263D01*
X50740395Y-27695263D01*
X50740395Y-27602818D01*
X50733634Y-27514995D01*
X50714480Y-27448418D01*
X50684624Y-27407002D01*
X50650287Y-27394473D01*
X50650287Y-27232875D01*
X50705996Y-27235490D01*
X50780153Y-27266424D01*
X50836233Y-27324581D01*
X50841335Y-27332620D01*
X50857945Y-27367163D01*
X50868004Y-27409918D01*
X50872893Y-27469686D01*
X50874017Y-27540690D01*
X50874079Y-27695263D01*
X50938875Y-27695263D01*
X50989150Y-27688706D01*
X51022831Y-27671975D01*
X51024624Y-27670016D01*
X51039358Y-27632783D01*
X51045069Y-27576580D01*
X51042263Y-27514467D01*
X51031444Y-27459510D01*
X51015218Y-27426899D01*
X51002220Y-27409228D01*
X50999738Y-27390569D01*
X51010387Y-27364819D01*
X51036782Y-27325873D01*
X51081535Y-27267630D01*
X51085727Y-27262284D01*
X51101240Y-27265023D01*
X51127040Y-27287876D01*
X51155711Y-27322609D01*
X51179834Y-27360990D01*
X51185530Y-27373048D01*
X51196897Y-27417034D01*
X51205005Y-27481487D01*
X51208257Y-27553497D01*
X51208264Y-27556864D01*
X51201816Y-27660457D01*
G37*
X51201816Y-27660457D02*
X51180840Y-27739070D01*
X51142820Y-27798916D01*
X51093022Y-27841147D01*
X51071770Y-27854275D01*
X51049508Y-27863968D01*
X51021030Y-27870744D01*
X50981129Y-27875123D01*
X50924599Y-27877624D01*
X50846233Y-27878768D01*
X50740824Y-27879072D01*
X50712858Y-27879078D01*
X50389474Y-27879078D01*
X50389474Y-27798868D01*
X50393057Y-27747706D01*
X50402134Y-27709877D01*
X50407732Y-27700399D01*
X50417394Y-27674488D01*
X50407732Y-27648024D01*
X50395670Y-27604452D01*
X50390815Y-27541160D01*
X50392922Y-27471010D01*
X50401744Y-27406860D01*
X50413063Y-27369407D01*
X50459588Y-27296933D01*
X50524154Y-27251640D01*
X50610000Y-27231278D01*
X50612204Y-27231088D01*
X50650287Y-27232875D01*
X50650287Y-27394473D01*
X50606970Y-27408601D01*
X50582592Y-27431612D01*
X50564155Y-27477804D01*
X50556795Y-27538775D01*
X50560417Y-27600949D01*
X50574926Y-27650751D01*
X50584235Y-27664703D01*
X50627247Y-27689085D01*
X50676143Y-27695263D01*
X50740395Y-27695263D01*
X50740395Y-27602818D01*
X50733634Y-27514995D01*
X50714480Y-27448418D01*
X50684624Y-27407002D01*
X50650287Y-27394473D01*
X50650287Y-27232875D01*
X50705996Y-27235490D01*
X50780153Y-27266424D01*
X50836233Y-27324581D01*
X50841335Y-27332620D01*
X50857945Y-27367163D01*
X50868004Y-27409918D01*
X50872893Y-27469686D01*
X50874017Y-27540690D01*
X50874079Y-27695263D01*
X50938875Y-27695263D01*
X50989150Y-27688706D01*
X51022831Y-27671975D01*
X51024624Y-27670016D01*
X51039358Y-27632783D01*
X51045069Y-27576580D01*
X51042263Y-27514467D01*
X51031444Y-27459510D01*
X51015218Y-27426899D01*
X51002220Y-27409228D01*
X50999738Y-27390569D01*
X51010387Y-27364819D01*
X51036782Y-27325873D01*
X51081535Y-27267630D01*
X51085727Y-27262284D01*
X51101240Y-27265023D01*
X51127040Y-27287876D01*
X51155711Y-27322609D01*
X51179834Y-27360990D01*
X51185530Y-27373048D01*
X51196897Y-27417034D01*
X51205005Y-27481487D01*
X51208257Y-27553497D01*
X51208264Y-27556864D01*
X51201816Y-27660457D01*
G36*
X52447532Y-26963360D02*
G01*
X52430126Y-26998592D01*
X52399794Y-27042040D01*
X52366717Y-27073706D01*
X52325183Y-27095394D01*
X52269478Y-27108903D01*
X52193889Y-27116038D01*
X52092704Y-27118600D01*
X52049203Y-27118750D01*
X51953865Y-27118312D01*
X51885729Y-27116496D01*
X51838582Y-27112545D01*
X51806210Y-27105702D01*
X51782400Y-27095211D01*
X51766157Y-27084296D01*
X51697048Y-27014619D01*
X51655479Y-26932566D01*
X51642977Y-26844050D01*
X51661066Y-26754981D01*
X51673858Y-26726763D01*
X51709069Y-26659210D01*
X51157300Y-26659210D01*
X51182795Y-26708512D01*
X51202520Y-26773473D01*
X51207573Y-26853320D01*
X51198244Y-26933052D01*
X51177286Y-26993265D01*
X51137373Y-27043208D01*
X51080259Y-27085881D01*
X51074395Y-27089090D01*
X51046773Y-27102622D01*
X51018932Y-27112505D01*
X50985206Y-27119309D01*
X50939929Y-27123601D01*
X50877438Y-27125951D01*
X50792065Y-27126928D01*
X50695990Y-27127105D01*
X50389474Y-27127105D01*
X50389474Y-26943289D01*
X50954661Y-26943289D01*
X50997923Y-26891875D01*
X51032528Y-26838466D01*
X51038820Y-26787888D01*
X51022628Y-26737030D01*
X51006773Y-26709925D01*
X50984190Y-26689751D01*
X50950060Y-26675403D01*
X50899566Y-26665776D01*
X50827889Y-26659763D01*
X50730212Y-26656260D01*
X50665198Y-26655026D01*
X50397829Y-26650855D01*
X50392778Y-26563125D01*
X50387727Y-26475394D01*
X52046899Y-26475394D01*
X52046899Y-26659210D01*
X51954400Y-26663896D01*
X51890191Y-26679688D01*
X51850241Y-26709183D01*
X51830520Y-26754980D01*
X51826579Y-26801250D01*
X51831108Y-26853628D01*
X51848931Y-26888390D01*
X51872481Y-26910128D01*
X51897811Y-26927240D01*
X51926031Y-26937427D01*
X51965569Y-26941960D01*
X52024858Y-26942109D01*
X52074502Y-26940584D01*
X52149290Y-26937081D01*
X52198389Y-26931867D01*
X52229533Y-26923087D01*
X52250455Y-26908886D01*
X52262548Y-26895484D01*
X52288919Y-26839487D01*
X52293178Y-26773211D01*
X52284094Y-26735156D01*
X52251804Y-26697477D01*
X52188994Y-26672519D01*
X52096106Y-26660422D01*
X52046899Y-26659210D01*
X52046899Y-26475394D01*
X52461579Y-26475394D01*
X52461579Y-26567302D01*
X52459397Y-26622483D01*
X52451649Y-26650952D01*
X52436532Y-26659206D01*
X52436084Y-26659210D01*
X52421280Y-26663040D01*
X52422961Y-26679933D01*
X52439228Y-26713519D01*
X52464113Y-26791778D01*
X52466729Y-26879827D01*
X52447532Y-26963360D01*
G37*
X52447532Y-26963360D02*
X52430126Y-26998592D01*
X52399794Y-27042040D01*
X52366717Y-27073706D01*
X52325183Y-27095394D01*
X52269478Y-27108903D01*
X52193889Y-27116038D01*
X52092704Y-27118600D01*
X52049203Y-27118750D01*
X51953865Y-27118312D01*
X51885729Y-27116496D01*
X51838582Y-27112545D01*
X51806210Y-27105702D01*
X51782400Y-27095211D01*
X51766157Y-27084296D01*
X51697048Y-27014619D01*
X51655479Y-26932566D01*
X51642977Y-26844050D01*
X51661066Y-26754981D01*
X51673858Y-26726763D01*
X51709069Y-26659210D01*
X51157300Y-26659210D01*
X51182795Y-26708512D01*
X51202520Y-26773473D01*
X51207573Y-26853320D01*
X51198244Y-26933052D01*
X51177286Y-26993265D01*
X51137373Y-27043208D01*
X51080259Y-27085881D01*
X51074395Y-27089090D01*
X51046773Y-27102622D01*
X51018932Y-27112505D01*
X50985206Y-27119309D01*
X50939929Y-27123601D01*
X50877438Y-27125951D01*
X50792065Y-27126928D01*
X50695990Y-27127105D01*
X50389474Y-27127105D01*
X50389474Y-26943289D01*
X50954661Y-26943289D01*
X50997923Y-26891875D01*
X51032528Y-26838466D01*
X51038820Y-26787888D01*
X51022628Y-26737030D01*
X51006773Y-26709925D01*
X50984190Y-26689751D01*
X50950060Y-26675403D01*
X50899566Y-26665776D01*
X50827889Y-26659763D01*
X50730212Y-26656260D01*
X50665198Y-26655026D01*
X50397829Y-26650855D01*
X50392778Y-26563125D01*
X50387727Y-26475394D01*
X52046899Y-26475394D01*
X52046899Y-26659210D01*
X51954400Y-26663896D01*
X51890191Y-26679688D01*
X51850241Y-26709183D01*
X51830520Y-26754980D01*
X51826579Y-26801250D01*
X51831108Y-26853628D01*
X51848931Y-26888390D01*
X51872481Y-26910128D01*
X51897811Y-26927240D01*
X51926031Y-26937427D01*
X51965569Y-26941960D01*
X52024858Y-26942109D01*
X52074502Y-26940584D01*
X52149290Y-26937081D01*
X52198389Y-26931867D01*
X52229533Y-26923087D01*
X52250455Y-26908886D01*
X52262548Y-26895484D01*
X52288919Y-26839487D01*
X52293178Y-26773211D01*
X52284094Y-26735156D01*
X52251804Y-26697477D01*
X52188994Y-26672519D01*
X52096106Y-26660422D01*
X52046899Y-26659210D01*
X52046899Y-26475394D01*
X52461579Y-26475394D01*
X52461579Y-26567302D01*
X52459397Y-26622483D01*
X52451649Y-26650952D01*
X52436532Y-26659206D01*
X52436084Y-26659210D01*
X52421280Y-26663040D01*
X52422961Y-26679933D01*
X52439228Y-26713519D01*
X52464113Y-26791778D01*
X52466729Y-26879827D01*
X52447532Y-26963360D01*
D14*
%TO.C,U4*%
X43910000Y-34670000D02*
X42260000Y-34670000D01*
X42260000Y-34670000D02*
X42260000Y-39870000D01*
X42260000Y-39870000D02*
X47560000Y-39870000D01*
X47560000Y-39870000D02*
X47560000Y-34670000D01*
X47560000Y-34670000D02*
X45910000Y-34670000D01*
X45910000Y-34670000D02*
G75*
G02*
X43910000Y-34670000I-1000000J0D01*
G01*
%TO.C,U3*%
X43910000Y-27920000D02*
X42260000Y-27920000D01*
X42260000Y-27920000D02*
X42260000Y-33120000D01*
X42260000Y-33120000D02*
X47560000Y-33120000D01*
X47560000Y-33120000D02*
X47560000Y-27920000D01*
X47560000Y-27920000D02*
X45910000Y-27920000D01*
X45910000Y-27920000D02*
G75*
G02*
X43910000Y-27920000I-1000000J0D01*
G01*
%TO.C,U2*%
X45890000Y-19630000D02*
X47540000Y-19630000D01*
X47540000Y-19630000D02*
X47540000Y-14430000D01*
X47540000Y-14430000D02*
X42240000Y-14430000D01*
X42240000Y-14430000D02*
X42240000Y-19630000D01*
X42240000Y-19630000D02*
X43890000Y-19630000D01*
X43890000Y-19630000D02*
G75*
G02*
X45890000Y-19630000I1000000J0D01*
G01*
%TO.C,U1*%
X45890000Y-26430000D02*
X47540000Y-26430000D01*
X47540000Y-26430000D02*
X47540000Y-21230000D01*
X47540000Y-21230000D02*
X42240000Y-21230000D01*
X42240000Y-21230000D02*
X42240000Y-26430000D01*
X42240000Y-26430000D02*
X43890000Y-26430000D01*
X43890000Y-26430000D02*
G75*
G02*
X45890000Y-26430000I1000000J0D01*
G01*
%TO.C,R5*%
X61167600Y-30419064D02*
X61167600Y-28964936D01*
X62987600Y-30419064D02*
X62987600Y-28964936D01*
%TO.C,R6*%
X65180800Y-30394264D02*
X65180800Y-28940136D01*
X67000800Y-30394264D02*
X67000800Y-28940136D01*
%TO.C,SW2*%
X54911500Y-40425000D02*
X59411500Y-40425000D01*
X53661500Y-36425000D02*
X53661500Y-37925000D01*
X59411500Y-33925000D02*
X54911500Y-33925000D01*
X60661500Y-37925000D02*
X60661500Y-36425000D01*
%TO.C,SW1*%
X65516000Y-40425000D02*
X70016000Y-40425000D01*
X64266000Y-36425000D02*
X64266000Y-37925000D01*
X70016000Y-33925000D02*
X65516000Y-33925000D01*
X71266000Y-37925000D02*
X71266000Y-36425000D01*
%TO.C,R2*%
X52384936Y-17695500D02*
X53839064Y-17695500D01*
X52384936Y-19515500D02*
X53839064Y-19515500D01*
%TO.C,R1*%
X52409736Y-21365800D02*
X53863864Y-21365800D01*
X52409736Y-23185800D02*
X53863864Y-23185800D01*
%TO.C,J2*%
X56645500Y-23642500D02*
X72005500Y-23642500D01*
X72005500Y-23642500D02*
X72005500Y-20982500D01*
X72005500Y-20982500D02*
X56645500Y-20982500D01*
X56645500Y-20982500D02*
X56645500Y-23642500D01*
X57595500Y-20982500D02*
X57595500Y-14982500D01*
X57595500Y-14982500D02*
X58355500Y-14982500D01*
X58355500Y-14982500D02*
X58355500Y-20982500D01*
X57655500Y-20982500D02*
X57655500Y-14982500D01*
X57775500Y-20982500D02*
X57775500Y-14982500D01*
X57895500Y-20982500D02*
X57895500Y-14982500D01*
X58015500Y-20982500D02*
X58015500Y-14982500D01*
X58135500Y-20982500D02*
X58135500Y-14982500D01*
X58255500Y-20982500D02*
X58255500Y-14982500D01*
X57595500Y-23972500D02*
X57595500Y-23642500D01*
X58355500Y-23972500D02*
X58355500Y-23642500D01*
X59245500Y-23642500D02*
X59245500Y-20982500D01*
X60135500Y-20982500D02*
X60135500Y-14982500D01*
X60135500Y-14982500D02*
X60895500Y-14982500D01*
X60895500Y-14982500D02*
X60895500Y-20982500D01*
X60135500Y-24039571D02*
X60135500Y-23642500D01*
X60895500Y-24039571D02*
X60895500Y-23642500D01*
X61785500Y-23642500D02*
X61785500Y-20982500D01*
X62675500Y-20982500D02*
X62675500Y-14982500D01*
X62675500Y-14982500D02*
X63435500Y-14982500D01*
X63435500Y-14982500D02*
X63435500Y-20982500D01*
X62675500Y-24039571D02*
X62675500Y-23642500D01*
X63435500Y-24039571D02*
X63435500Y-23642500D01*
X64325500Y-23642500D02*
X64325500Y-20982500D01*
X65215500Y-20982500D02*
X65215500Y-14982500D01*
X65215500Y-14982500D02*
X65975500Y-14982500D01*
X65975500Y-14982500D02*
X65975500Y-20982500D01*
X65215500Y-24039571D02*
X65215500Y-23642500D01*
X65975500Y-24039571D02*
X65975500Y-23642500D01*
X66865500Y-23642500D02*
X66865500Y-20982500D01*
X67755500Y-20982500D02*
X67755500Y-14982500D01*
X67755500Y-14982500D02*
X68515500Y-14982500D01*
X68515500Y-14982500D02*
X68515500Y-20982500D01*
X67755500Y-24039571D02*
X67755500Y-23642500D01*
X68515500Y-24039571D02*
X68515500Y-23642500D01*
X69405500Y-23642500D02*
X69405500Y-20982500D01*
X70295500Y-20982500D02*
X70295500Y-14982500D01*
X70295500Y-14982500D02*
X71055500Y-14982500D01*
X71055500Y-14982500D02*
X71055500Y-20982500D01*
X70295500Y-24039571D02*
X70295500Y-23642500D01*
X71055500Y-24039571D02*
X71055500Y-23642500D01*
X57975500Y-26352500D02*
X56705500Y-26352500D01*
X56705500Y-26352500D02*
X56705500Y-25082500D01*
%TO.C,J1*%
X27685000Y-15170000D02*
X29015000Y-15170000D01*
X27685000Y-16500000D02*
X27685000Y-15170000D01*
X30285000Y-15170000D02*
X32885000Y-15170000D01*
X30285000Y-17770000D02*
X30285000Y-15170000D01*
X27685000Y-17770000D02*
X30285000Y-17770000D01*
X32885000Y-15170000D02*
X32885000Y-40690000D01*
X27685000Y-17770000D02*
X27685000Y-40690000D01*
X27685000Y-40690000D02*
X32885000Y-40690000D01*
%TO.C,D2*%
X34961700Y-22293200D02*
X39021700Y-22293200D01*
X39021700Y-22293200D02*
X39021700Y-20023200D01*
X39021700Y-20023200D02*
X34961700Y-20023200D01*
%TO.C,D1*%
X38945500Y-14676500D02*
X34885500Y-14676500D01*
X38945500Y-16946500D02*
X38945500Y-14676500D01*
X34885500Y-16946500D02*
X38945500Y-16946500D01*
%TO.C,U4*%
D11*
X44148095Y-40252380D02*
X44148095Y-41061904D01*
X44195714Y-41157142D01*
X44243333Y-41204761D01*
X44338571Y-41252380D01*
X44529047Y-41252380D01*
X44624285Y-41204761D01*
X44671904Y-41157142D01*
X44719523Y-41061904D01*
X44719523Y-40252380D01*
X45624285Y-40585714D02*
X45624285Y-41252380D01*
X45386190Y-40204761D02*
X45148095Y-40919047D01*
X45767142Y-40919047D01*
%TO.C,U3*%
X44148095Y-33452380D02*
X44148095Y-34261904D01*
X44195714Y-34357142D01*
X44243333Y-34404761D01*
X44338571Y-34452380D01*
X44529047Y-34452380D01*
X44624285Y-34404761D01*
X44671904Y-34357142D01*
X44719523Y-34261904D01*
X44719523Y-33452380D01*
X45100476Y-33452380D02*
X45719523Y-33452380D01*
X45386190Y-33833333D01*
X45529047Y-33833333D01*
X45624285Y-33880952D01*
X45671904Y-33928571D01*
X45719523Y-34023809D01*
X45719523Y-34261904D01*
X45671904Y-34357142D01*
X45624285Y-34404761D01*
X45529047Y-34452380D01*
X45243333Y-34452380D01*
X45148095Y-34404761D01*
X45100476Y-34357142D01*
%TO.C,U2*%
X44128095Y-19652380D02*
X44128095Y-20461904D01*
X44175714Y-20557142D01*
X44223333Y-20604761D01*
X44318571Y-20652380D01*
X44509047Y-20652380D01*
X44604285Y-20604761D01*
X44651904Y-20557142D01*
X44699523Y-20461904D01*
X44699523Y-19652380D01*
X45128095Y-19747619D02*
X45175714Y-19700000D01*
X45270952Y-19652380D01*
X45509047Y-19652380D01*
X45604285Y-19700000D01*
X45651904Y-19747619D01*
X45699523Y-19842857D01*
X45699523Y-19938095D01*
X45651904Y-20080952D01*
X45080476Y-20652380D01*
X45699523Y-20652380D01*
%TO.C,U1*%
X44238095Y-26452380D02*
X44238095Y-27261904D01*
X44285714Y-27357142D01*
X44333333Y-27404761D01*
X44428571Y-27452380D01*
X44619047Y-27452380D01*
X44714285Y-27404761D01*
X44761904Y-27357142D01*
X44809523Y-27261904D01*
X44809523Y-26452380D01*
X45809523Y-27452380D02*
X45238095Y-27452380D01*
X45523809Y-27452380D02*
X45523809Y-26452380D01*
X45428571Y-26595238D01*
X45333333Y-26690476D01*
X45238095Y-26738095D01*
%TO.C,R5*%
X59466219Y-28027333D02*
X59942409Y-27694000D01*
X59466219Y-27455904D02*
X60466219Y-27455904D01*
X60466219Y-27836857D01*
X60418600Y-27932095D01*
X60370980Y-27979714D01*
X60275742Y-28027333D01*
X60132885Y-28027333D01*
X60037647Y-27979714D01*
X59990028Y-27932095D01*
X59942409Y-27836857D01*
X59942409Y-27455904D01*
X60466219Y-28932095D02*
X60466219Y-28455904D01*
X59990028Y-28408285D01*
X60037647Y-28455904D01*
X60085266Y-28551142D01*
X60085266Y-28789238D01*
X60037647Y-28884476D01*
X59990028Y-28932095D01*
X59894790Y-28979714D01*
X59656695Y-28979714D01*
X59561457Y-28932095D01*
X59513838Y-28884476D01*
X59466219Y-28789238D01*
X59466219Y-28551142D01*
X59513838Y-28455904D01*
X59561457Y-28408285D01*
X63555619Y-29078323D02*
X63555619Y-28506895D01*
X63555619Y-28792609D02*
X64555619Y-28792609D01*
X64412761Y-28697371D01*
X64317523Y-28602133D01*
X64269904Y-28506895D01*
X64555619Y-29697371D02*
X64555619Y-29792609D01*
X64508000Y-29887847D01*
X64460380Y-29935466D01*
X64365142Y-29983085D01*
X64174666Y-30030704D01*
X63936571Y-30030704D01*
X63746095Y-29983085D01*
X63650857Y-29935466D01*
X63603238Y-29887847D01*
X63555619Y-29792609D01*
X63555619Y-29697371D01*
X63603238Y-29602133D01*
X63650857Y-29554514D01*
X63746095Y-29506895D01*
X63936571Y-29459276D01*
X64174666Y-29459276D01*
X64365142Y-29506895D01*
X64460380Y-29554514D01*
X64508000Y-29602133D01*
X64555619Y-29697371D01*
X63555619Y-30459276D02*
X64555619Y-30459276D01*
X63555619Y-31030704D02*
X64127047Y-30602133D01*
X64555619Y-31030704D02*
X63984190Y-30459276D01*
%TO.C,R6*%
X67733919Y-28014033D02*
X68210109Y-27680700D01*
X67733919Y-27442604D02*
X68733919Y-27442604D01*
X68733919Y-27823557D01*
X68686300Y-27918795D01*
X68638680Y-27966414D01*
X68543442Y-28014033D01*
X68400585Y-28014033D01*
X68305347Y-27966414D01*
X68257728Y-27918795D01*
X68210109Y-27823557D01*
X68210109Y-27442604D01*
X68733919Y-28871176D02*
X68733919Y-28680700D01*
X68686300Y-28585461D01*
X68638680Y-28537842D01*
X68495823Y-28442604D01*
X68305347Y-28394985D01*
X67924395Y-28394985D01*
X67829157Y-28442604D01*
X67781538Y-28490223D01*
X67733919Y-28585461D01*
X67733919Y-28775938D01*
X67781538Y-28871176D01*
X67829157Y-28918795D01*
X67924395Y-28966414D01*
X68162490Y-28966414D01*
X68257728Y-28918795D01*
X68305347Y-28871176D01*
X68352966Y-28775938D01*
X68352966Y-28585461D01*
X68305347Y-28490223D01*
X68257728Y-28442604D01*
X68162490Y-28394985D01*
%TO.C,SW2*%
X55816666Y-37590361D02*
X55959523Y-37637980D01*
X56197619Y-37637980D01*
X56292857Y-37590361D01*
X56340476Y-37542742D01*
X56388095Y-37447504D01*
X56388095Y-37352266D01*
X56340476Y-37257028D01*
X56292857Y-37209409D01*
X56197619Y-37161790D01*
X56007142Y-37114171D01*
X55911904Y-37066552D01*
X55864285Y-37018933D01*
X55816666Y-36923695D01*
X55816666Y-36828457D01*
X55864285Y-36733219D01*
X55911904Y-36685600D01*
X56007142Y-36637980D01*
X56245238Y-36637980D01*
X56388095Y-36685600D01*
X56721428Y-36637980D02*
X56959523Y-37637980D01*
X57150000Y-36923695D01*
X57340476Y-37637980D01*
X57578571Y-36637980D01*
X57911904Y-36733219D02*
X57959523Y-36685600D01*
X58054761Y-36637980D01*
X58292857Y-36637980D01*
X58388095Y-36685600D01*
X58435714Y-36733219D01*
X58483333Y-36828457D01*
X58483333Y-36923695D01*
X58435714Y-37066552D01*
X57864285Y-37637980D01*
X58483333Y-37637980D01*
%TO.C,SW1*%
X66433866Y-37590361D02*
X66576723Y-37637980D01*
X66814819Y-37637980D01*
X66910057Y-37590361D01*
X66957676Y-37542742D01*
X67005295Y-37447504D01*
X67005295Y-37352266D01*
X66957676Y-37257028D01*
X66910057Y-37209409D01*
X66814819Y-37161790D01*
X66624342Y-37114171D01*
X66529104Y-37066552D01*
X66481485Y-37018933D01*
X66433866Y-36923695D01*
X66433866Y-36828457D01*
X66481485Y-36733219D01*
X66529104Y-36685600D01*
X66624342Y-36637980D01*
X66862438Y-36637980D01*
X67005295Y-36685600D01*
X67338628Y-36637980D02*
X67576723Y-37637980D01*
X67767200Y-36923695D01*
X67957676Y-37637980D01*
X68195771Y-36637980D01*
X69100533Y-37637980D02*
X68529104Y-37637980D01*
X68814819Y-37637980D02*
X68814819Y-36637980D01*
X68719580Y-36780838D01*
X68624342Y-36876076D01*
X68529104Y-36923695D01*
%TO.C,R2*%
X52945333Y-17237880D02*
X52612000Y-16761690D01*
X52373904Y-17237880D02*
X52373904Y-16237880D01*
X52754857Y-16237880D01*
X52850095Y-16285500D01*
X52897714Y-16333119D01*
X52945333Y-16428357D01*
X52945333Y-16571214D01*
X52897714Y-16666452D01*
X52850095Y-16714071D01*
X52754857Y-16761690D01*
X52373904Y-16761690D01*
X53326285Y-16333119D02*
X53373904Y-16285500D01*
X53469142Y-16237880D01*
X53707238Y-16237880D01*
X53802476Y-16285500D01*
X53850095Y-16333119D01*
X53897714Y-16428357D01*
X53897714Y-16523595D01*
X53850095Y-16666452D01*
X53278666Y-17237880D01*
X53897714Y-17237880D01*
%TO.C,R1*%
X52982233Y-24544280D02*
X52648900Y-24068090D01*
X52410804Y-24544280D02*
X52410804Y-23544280D01*
X52791757Y-23544280D01*
X52886995Y-23591900D01*
X52934614Y-23639519D01*
X52982233Y-23734757D01*
X52982233Y-23877614D01*
X52934614Y-23972852D01*
X52886995Y-24020471D01*
X52791757Y-24068090D01*
X52410804Y-24068090D01*
X53934614Y-24544280D02*
X53363185Y-24544280D01*
X53648900Y-24544280D02*
X53648900Y-23544280D01*
X53553661Y-23687138D01*
X53458423Y-23782376D01*
X53363185Y-23829995D01*
%TO.C,J2*%
X71147619Y-26666666D02*
X70433333Y-26666666D01*
X70290476Y-26619047D01*
X70195238Y-26523809D01*
X70147619Y-26380952D01*
X70147619Y-26285714D01*
X71052380Y-27095238D02*
X71100000Y-27142857D01*
X71147619Y-27238095D01*
X71147619Y-27476190D01*
X71100000Y-27571428D01*
X71052380Y-27619047D01*
X70957142Y-27666666D01*
X70861904Y-27666666D01*
X70719047Y-27619047D01*
X70147619Y-27047619D01*
X70147619Y-27666666D01*
%TO.C,J1*%
X35147619Y-40266666D02*
X34433333Y-40266666D01*
X34290476Y-40219047D01*
X34195238Y-40123809D01*
X34147619Y-39980952D01*
X34147619Y-39885714D01*
X34147619Y-41266666D02*
X34147619Y-40695238D01*
X34147619Y-40980952D02*
X35147619Y-40980952D01*
X35004761Y-40885714D01*
X34909523Y-40790476D01*
X34861904Y-40695238D01*
%TD*%
M02*
