%TF.GenerationSoftware,KiCad,Pcbnew,(5.1.12)-1*%
%TF.CreationDate,2021-12-28T12:25:46-06:00*%
%TF.ProjectId,iPiMI,6950694d-492e-46b6-9963-61645f706362,rev?*%
%TF.SameCoordinates,Original*%
%TF.FileFunction,Paste,Top*%
%TF.FilePolarity,Positive*%
%FSLAX46Y46*%
G04 Gerber Fmt 4.6, Leading zero omitted, Abs format (unit mm)*
G04 Created by KiCad (PCBNEW (5.1.12)-1) date 2021-12-28 12:25:46*
%MOMM*%
%LPD*%
G01*
G04 APERTURE LIST*
G04 APERTURE END LIST*
%TO.C,R5*%
G36*
G01*
X62702601Y-28792000D02*
X61452599Y-28792000D01*
G75*
G02*
X61202600Y-28542001I0J249999D01*
G01*
X61202600Y-27741999D01*
G75*
G02*
X61452599Y-27492000I249999J0D01*
G01*
X62702601Y-27492000D01*
G75*
G02*
X62952600Y-27741999I0J-249999D01*
G01*
X62952600Y-28542001D01*
G75*
G02*
X62702601Y-28792000I-249999J0D01*
G01*
G37*
G36*
G01*
X62702601Y-31892000D02*
X61452599Y-31892000D01*
G75*
G02*
X61202600Y-31642001I0J249999D01*
G01*
X61202600Y-30841999D01*
G75*
G02*
X61452599Y-30592000I249999J0D01*
G01*
X62702601Y-30592000D01*
G75*
G02*
X62952600Y-30841999I0J-249999D01*
G01*
X62952600Y-31642001D01*
G75*
G02*
X62702601Y-31892000I-249999J0D01*
G01*
G37*
%TD*%
%TO.C,R6*%
G36*
G01*
X66715801Y-28767200D02*
X65465799Y-28767200D01*
G75*
G02*
X65215800Y-28517201I0J249999D01*
G01*
X65215800Y-27717199D01*
G75*
G02*
X65465799Y-27467200I249999J0D01*
G01*
X66715801Y-27467200D01*
G75*
G02*
X66965800Y-27717199I0J-249999D01*
G01*
X66965800Y-28517201D01*
G75*
G02*
X66715801Y-28767200I-249999J0D01*
G01*
G37*
G36*
G01*
X66715801Y-31867200D02*
X65465799Y-31867200D01*
G75*
G02*
X65215800Y-31617201I0J249999D01*
G01*
X65215800Y-30817199D01*
G75*
G02*
X65465799Y-30567200I249999J0D01*
G01*
X66715801Y-30567200D01*
G75*
G02*
X66965800Y-30817199I0J-249999D01*
G01*
X66965800Y-31617201D01*
G75*
G02*
X66715801Y-31867200I-249999J0D01*
G01*
G37*
%TD*%
%TO.C,R2*%
G36*
G01*
X54012000Y-19230501D02*
X54012000Y-17980499D01*
G75*
G02*
X54261999Y-17730500I249999J0D01*
G01*
X55062001Y-17730500D01*
G75*
G02*
X55312000Y-17980499I0J-249999D01*
G01*
X55312000Y-19230501D01*
G75*
G02*
X55062001Y-19480500I-249999J0D01*
G01*
X54261999Y-19480500D01*
G75*
G02*
X54012000Y-19230501I0J249999D01*
G01*
G37*
G36*
G01*
X50912000Y-19230501D02*
X50912000Y-17980499D01*
G75*
G02*
X51161999Y-17730500I249999J0D01*
G01*
X51962001Y-17730500D01*
G75*
G02*
X52212000Y-17980499I0J-249999D01*
G01*
X52212000Y-19230501D01*
G75*
G02*
X51962001Y-19480500I-249999J0D01*
G01*
X51161999Y-19480500D01*
G75*
G02*
X50912000Y-19230501I0J249999D01*
G01*
G37*
%TD*%
%TO.C,R1*%
G36*
G01*
X54036800Y-22900801D02*
X54036800Y-21650799D01*
G75*
G02*
X54286799Y-21400800I249999J0D01*
G01*
X55086801Y-21400800D01*
G75*
G02*
X55336800Y-21650799I0J-249999D01*
G01*
X55336800Y-22900801D01*
G75*
G02*
X55086801Y-23150800I-249999J0D01*
G01*
X54286799Y-23150800D01*
G75*
G02*
X54036800Y-22900801I0J249999D01*
G01*
G37*
G36*
G01*
X50936800Y-22900801D02*
X50936800Y-21650799D01*
G75*
G02*
X51186799Y-21400800I249999J0D01*
G01*
X51986801Y-21400800D01*
G75*
G02*
X52236800Y-21650799I0J-249999D01*
G01*
X52236800Y-22900801D01*
G75*
G02*
X51986801Y-23150800I-249999J0D01*
G01*
X51186799Y-23150800D01*
G75*
G02*
X50936800Y-22900801I0J249999D01*
G01*
G37*
%TD*%
%TO.C,D2*%
G36*
G01*
X35786700Y-20533200D02*
X35786700Y-21783200D01*
G75*
G02*
X35536700Y-22033200I-250000J0D01*
G01*
X34611700Y-22033200D01*
G75*
G02*
X34361700Y-21783200I0J250000D01*
G01*
X34361700Y-20533200D01*
G75*
G02*
X34611700Y-20283200I250000J0D01*
G01*
X35536700Y-20283200D01*
G75*
G02*
X35786700Y-20533200I0J-250000D01*
G01*
G37*
G36*
G01*
X38761700Y-20533200D02*
X38761700Y-21783200D01*
G75*
G02*
X38511700Y-22033200I-250000J0D01*
G01*
X37586700Y-22033200D01*
G75*
G02*
X37336700Y-21783200I0J250000D01*
G01*
X37336700Y-20533200D01*
G75*
G02*
X37586700Y-20283200I250000J0D01*
G01*
X38511700Y-20283200D01*
G75*
G02*
X38761700Y-20533200I0J-250000D01*
G01*
G37*
%TD*%
%TO.C,D1*%
G36*
G01*
X38685500Y-15186500D02*
X38685500Y-16436500D01*
G75*
G02*
X38435500Y-16686500I-250000J0D01*
G01*
X37510500Y-16686500D01*
G75*
G02*
X37260500Y-16436500I0J250000D01*
G01*
X37260500Y-15186500D01*
G75*
G02*
X37510500Y-14936500I250000J0D01*
G01*
X38435500Y-14936500D01*
G75*
G02*
X38685500Y-15186500I0J-250000D01*
G01*
G37*
G36*
G01*
X35710500Y-15186500D02*
X35710500Y-16436500D01*
G75*
G02*
X35460500Y-16686500I-250000J0D01*
G01*
X34535500Y-16686500D01*
G75*
G02*
X34285500Y-16436500I0J250000D01*
G01*
X34285500Y-15186500D01*
G75*
G02*
X34535500Y-14936500I250000J0D01*
G01*
X35460500Y-14936500D01*
G75*
G02*
X35710500Y-15186500I0J-250000D01*
G01*
G37*
%TD*%
M02*
