M48
INCH
T1C0.0315
T2C0.0394
T3C0.0433
%
G90
G05
T1
X1.6173Y-0.6205
X1.6173Y-0.7205
X1.6173Y-0.8882
X1.6173Y-0.9882
X1.6181Y-1.1516
X1.6181Y-1.2516
X1.6181Y-1.4173
X1.6181Y-1.5173
X1.9173Y-0.6205
X1.9173Y-0.7205
X1.9173Y-0.8882
X1.9173Y-0.9882
X1.9181Y-1.1516
X1.9181Y-1.2516
X1.9181Y-1.4173
X1.9181Y-1.5173
T2
X0.797Y-0.648
X0.797Y-0.748
X0.797Y-0.848
X0.797Y-0.948
X0.797Y-1.048
X0.797Y-1.148
X0.797Y-1.248
X0.797Y-1.348
X0.797Y-1.448
X0.797Y-1.548
X0.897Y-0.648
X0.897Y-0.748
X0.897Y-0.848
X0.897Y-0.948
X0.897Y-1.048
X0.897Y-1.148
X0.897Y-1.248
X0.897Y-1.348
X0.897Y-1.448
X0.897Y-1.548
X1.1423Y-0.6496
X1.1423Y-0.7496
X1.1423Y-0.8496
X1.1423Y-0.9496
X1.1423Y-1.0496
X1.1423Y-1.1496
X1.1423Y-1.2496
X1.1423Y-1.3496
X1.1423Y-1.4496
X1.1423Y-1.5496
X1.2423Y-0.6496
X1.2423Y-0.7496
X1.2423Y-0.8496
X1.2423Y-0.9496
X1.2423Y-1.0496
X1.2423Y-1.1496
X1.2423Y-1.2496
X1.2423Y-1.3496
X1.2423Y-1.4496
X1.2423Y-1.5496
X2.2825Y-0.9875
X2.3825Y-0.9875
X2.4825Y-0.9875
X2.5825Y-0.9875
X2.6825Y-0.9875
X2.7825Y-0.9875
T3
X2.1225Y-1.375
X2.1225Y-1.5522
X2.3784Y-1.375
X2.3784Y-1.5522
X2.54Y-1.375
X2.54Y-1.5522
X2.7959Y-1.375
X2.7959Y-1.5522
T0
M30
