M48
INCH,TZ
T1C0.0315
T2C0.0394
T3C0.0433
%
G90
G05
T1
X16173Y-6205
X16173Y-7205
X16173Y-8882
X16173Y-9882
X16181Y-11516
X16181Y-12516
X16181Y-14173
X16181Y-15173
X19173Y-6205
X19173Y-7205
X19173Y-8882
X19173Y-9882
X19181Y-11516
X19181Y-12516
X19181Y-14173
X19181Y-15173
T2
X7970Y-6480
X7970Y-7480
X7970Y-8480
X7970Y-9480
X7970Y-10480
X7970Y-11480
X7970Y-12480
X7970Y-13480
X7970Y-14480
X7970Y-15480
X8970Y-6480
X8970Y-7480
X8970Y-8480
X8970Y-9480
X8970Y-10480
X8970Y-11480
X8970Y-12480
X8970Y-13480
X8970Y-14480
X8970Y-15480
X11423Y-6496
X11423Y-7496
X11423Y-8496
X11423Y-9496
X11423Y-10496
X11423Y-11496
X11423Y-12496
X11423Y-13496
X11423Y-14496
X11423Y-15496
X12423Y-6496
X12423Y-7496
X12423Y-8496
X12423Y-9496
X12423Y-10496
X12423Y-11496
X12423Y-12496
X12423Y-13496
X12423Y-14496
X12423Y-15496
X22825Y-9875
X23825Y-9875
X24825Y-9875
X25825Y-9875
X26825Y-9875
X27825Y-9875
T3
X21225Y-13750
X21225Y-15522
X23784Y-13750
X23784Y-15522
X25400Y-13750
X25400Y-15522
X27959Y-13750
X27959Y-15522
T0
M30
