%TF.GenerationSoftware,KiCad,Pcbnew,(5.1.12)-1*%
%TF.CreationDate,2021-12-28T12:25:46-06:00*%
%TF.ProjectId,iPiMI,6950694d-492e-46b6-9963-61645f706362,rev?*%
%TF.SameCoordinates,Original*%
%TF.FileFunction,Legend,Bot*%
%TF.FilePolarity,Positive*%
%FSLAX46Y46*%
G04 Gerber Fmt 4.6, Leading zero omitted, Abs format (unit mm)*
G04 Created by KiCad (PCBNEW (5.1.12)-1) date 2021-12-28 12:25:46*
%MOMM*%
%LPD*%
G01*
G04 APERTURE LIST*
%ADD10C,0.150000*%
%ADD11C,0.120000*%
G04 APERTURE END LIST*
D10*
X56672023Y-31790595D02*
X57267261Y-32207261D01*
X56672023Y-32504880D02*
X57922023Y-32504880D01*
X57922023Y-32028690D01*
X57862500Y-31909642D01*
X57802976Y-31850119D01*
X57683928Y-31790595D01*
X57505357Y-31790595D01*
X57386309Y-31850119D01*
X57326785Y-31909642D01*
X57267261Y-32028690D01*
X57267261Y-32504880D01*
X56672023Y-30600119D02*
X56672023Y-31314404D01*
X56672023Y-30957261D02*
X57922023Y-30957261D01*
X57743452Y-31076309D01*
X57624404Y-31195357D01*
X57564880Y-31314404D01*
X56672023Y-29052500D02*
X56672023Y-29112023D01*
X56731547Y-29231071D01*
X56910119Y-29409642D01*
X57267261Y-29707261D01*
X57445833Y-29826309D01*
X57624404Y-29885833D01*
X57743452Y-29885833D01*
X57862500Y-29826309D01*
X57922023Y-29707261D01*
X57922023Y-29647738D01*
X57862500Y-29528690D01*
X57743452Y-29469166D01*
X57683928Y-29469166D01*
X57564880Y-29528690D01*
X57505357Y-29588214D01*
X57267261Y-29945357D01*
X57207738Y-30004880D01*
X57088690Y-30064404D01*
X56910119Y-30064404D01*
X56791071Y-30004880D01*
X56731547Y-29945357D01*
X56672023Y-29826309D01*
X56672023Y-29647738D01*
X56731547Y-29528690D01*
X56791071Y-29469166D01*
X57029166Y-29290595D01*
X57207738Y-29231071D01*
X57326785Y-29231071D01*
X57802976Y-28576309D02*
X57862500Y-28516785D01*
X57922023Y-28397738D01*
X57922023Y-28100119D01*
X57862500Y-27981071D01*
X57802976Y-27921547D01*
X57683928Y-27862023D01*
X57564880Y-27862023D01*
X57386309Y-27921547D01*
X56672023Y-28635833D01*
X56672023Y-27862023D01*
X56791071Y-27326309D02*
X56731547Y-27266785D01*
X56672023Y-27326309D01*
X56731547Y-27385833D01*
X56791071Y-27326309D01*
X56672023Y-27326309D01*
X57445833Y-27326309D02*
X57386309Y-27266785D01*
X57326785Y-27326309D01*
X57386309Y-27385833D01*
X57445833Y-27326309D01*
X57326785Y-27326309D01*
X55897023Y-32683452D02*
X54647023Y-32266785D01*
X55897023Y-31850119D01*
X54647023Y-31433452D02*
X55897023Y-31433452D01*
X54647023Y-30838214D02*
X55897023Y-30838214D01*
X54647023Y-30123928D01*
X55897023Y-30123928D01*
X55301785Y-28576309D02*
X55301785Y-27623928D01*
X54944642Y-27623928D02*
X54944642Y-28576309D01*
X54647023Y-25421547D02*
X54647023Y-26135833D01*
X54647023Y-25778690D02*
X55897023Y-25778690D01*
X55718452Y-25897738D01*
X55599404Y-26016785D01*
X55539880Y-26135833D01*
X55777976Y-24945357D02*
X55837500Y-24885833D01*
X55897023Y-24766785D01*
X55897023Y-24469166D01*
X55837500Y-24350119D01*
X55777976Y-24290595D01*
X55658928Y-24231071D01*
X55539880Y-24231071D01*
X55361309Y-24290595D01*
X54647023Y-25004880D01*
X54647023Y-24231071D01*
X55480357Y-23814404D02*
X54647023Y-23516785D01*
X55480357Y-23219166D01*
X55897023Y-21254880D02*
X55897023Y-21492976D01*
X55837500Y-21612023D01*
X55777976Y-21671547D01*
X55599404Y-21790595D01*
X55361309Y-21850119D01*
X54885119Y-21850119D01*
X54766071Y-21790595D01*
X54706547Y-21731071D01*
X54647023Y-21612023D01*
X54647023Y-21373928D01*
X54706547Y-21254880D01*
X54766071Y-21195357D01*
X54885119Y-21135833D01*
X55182738Y-21135833D01*
X55301785Y-21195357D01*
X55361309Y-21254880D01*
X55420833Y-21373928D01*
X55420833Y-21612023D01*
X55361309Y-21731071D01*
X55301785Y-21790595D01*
X55182738Y-21850119D01*
X55777976Y-20659642D02*
X55837500Y-20600119D01*
X55897023Y-20481071D01*
X55897023Y-20183452D01*
X55837500Y-20064404D01*
X55777976Y-20004880D01*
X55658928Y-19945357D01*
X55539880Y-19945357D01*
X55361309Y-20004880D01*
X54647023Y-20719166D01*
X54647023Y-19945357D01*
X55897023Y-19171547D02*
X55897023Y-19052500D01*
X55837500Y-18933452D01*
X55777976Y-18873928D01*
X55658928Y-18814404D01*
X55420833Y-18754880D01*
X55123214Y-18754880D01*
X54885119Y-18814404D01*
X54766071Y-18873928D01*
X54706547Y-18933452D01*
X54647023Y-19052500D01*
X54647023Y-19171547D01*
X54706547Y-19290595D01*
X54766071Y-19350119D01*
X54885119Y-19409642D01*
X55123214Y-19469166D01*
X55420833Y-19469166D01*
X55658928Y-19409642D01*
X55777976Y-19350119D01*
X55837500Y-19290595D01*
X55897023Y-19171547D01*
X54647023Y-18278690D02*
X54647023Y-17981071D01*
X54885119Y-17981071D01*
X54944642Y-18100119D01*
X55063690Y-18219166D01*
X55242261Y-18278690D01*
X55539880Y-18278690D01*
X55718452Y-18219166D01*
X55837500Y-18100119D01*
X55897023Y-17921547D01*
X55897023Y-17683452D01*
X55837500Y-17504880D01*
X55718452Y-17385833D01*
X55539880Y-17326309D01*
X55242261Y-17326309D01*
X55063690Y-17385833D01*
X54944642Y-17504880D01*
X54885119Y-17623928D01*
X54647023Y-17623928D01*
X54647023Y-17326309D01*
X53872023Y-32683452D02*
X52622023Y-32266785D01*
X53872023Y-31850119D01*
X52622023Y-31433452D02*
X53872023Y-31433452D01*
X52622023Y-30838214D02*
X53872023Y-30838214D01*
X52622023Y-30123928D01*
X53872023Y-30123928D01*
X53276785Y-28576309D02*
X53276785Y-27623928D01*
X52919642Y-27623928D02*
X52919642Y-28576309D01*
X53872023Y-25481071D02*
X53872023Y-26076309D01*
X53276785Y-26135833D01*
X53336309Y-26076309D01*
X53395833Y-25957261D01*
X53395833Y-25659642D01*
X53336309Y-25540595D01*
X53276785Y-25481071D01*
X53157738Y-25421547D01*
X52860119Y-25421547D01*
X52741071Y-25481071D01*
X52681547Y-25540595D01*
X52622023Y-25659642D01*
X52622023Y-25957261D01*
X52681547Y-26076309D01*
X52741071Y-26135833D01*
X53455357Y-25004880D02*
X52622023Y-24707261D01*
X53455357Y-24409642D01*
X53752976Y-23040595D02*
X53812500Y-22981071D01*
X53872023Y-22862023D01*
X53872023Y-22564404D01*
X53812500Y-22445357D01*
X53752976Y-22385833D01*
X53633928Y-22326309D01*
X53514880Y-22326309D01*
X53336309Y-22385833D01*
X52622023Y-23100119D01*
X52622023Y-22326309D01*
X53872023Y-21254880D02*
X53872023Y-21492976D01*
X53812500Y-21612023D01*
X53752976Y-21671547D01*
X53574404Y-21790595D01*
X53336309Y-21850119D01*
X52860119Y-21850119D01*
X52741071Y-21790595D01*
X52681547Y-21731071D01*
X52622023Y-21612023D01*
X52622023Y-21373928D01*
X52681547Y-21254880D01*
X52741071Y-21195357D01*
X52860119Y-21135833D01*
X53157738Y-21135833D01*
X53276785Y-21195357D01*
X53336309Y-21254880D01*
X53395833Y-21373928D01*
X53395833Y-21612023D01*
X53336309Y-21731071D01*
X53276785Y-21790595D01*
X53157738Y-21850119D01*
X53872023Y-20362023D02*
X53872023Y-20242976D01*
X53812500Y-20123928D01*
X53752976Y-20064404D01*
X53633928Y-20004880D01*
X53395833Y-19945357D01*
X53098214Y-19945357D01*
X52860119Y-20004880D01*
X52741071Y-20064404D01*
X52681547Y-20123928D01*
X52622023Y-20242976D01*
X52622023Y-20362023D01*
X52681547Y-20481071D01*
X52741071Y-20540595D01*
X52860119Y-20600119D01*
X53098214Y-20659642D01*
X53395833Y-20659642D01*
X53633928Y-20600119D01*
X53752976Y-20540595D01*
X53812500Y-20481071D01*
X53872023Y-20362023D01*
X52622023Y-19469166D02*
X52622023Y-19171547D01*
X52860119Y-19171547D01*
X52919642Y-19290595D01*
X53038690Y-19409642D01*
X53217261Y-19469166D01*
X53514880Y-19469166D01*
X53693452Y-19409642D01*
X53812500Y-19290595D01*
X53872023Y-19112023D01*
X53872023Y-18873928D01*
X53812500Y-18695357D01*
X53693452Y-18576309D01*
X53514880Y-18516785D01*
X53217261Y-18516785D01*
X53038690Y-18576309D01*
X52919642Y-18695357D01*
X52860119Y-18814404D01*
X52622023Y-18814404D01*
X52622023Y-18516785D01*
X51847023Y-32683452D02*
X50597023Y-32266785D01*
X51847023Y-31850119D01*
X50597023Y-31433452D02*
X51847023Y-31433452D01*
X50597023Y-30838214D02*
X51847023Y-30838214D01*
X50597023Y-30123928D01*
X51847023Y-30123928D01*
X51251785Y-28576309D02*
X51251785Y-27623928D01*
X50894642Y-27623928D02*
X50894642Y-28576309D01*
X51847023Y-26195357D02*
X51847023Y-25421547D01*
X51370833Y-25838214D01*
X51370833Y-25659642D01*
X51311309Y-25540595D01*
X51251785Y-25481071D01*
X51132738Y-25421547D01*
X50835119Y-25421547D01*
X50716071Y-25481071D01*
X50656547Y-25540595D01*
X50597023Y-25659642D01*
X50597023Y-26016785D01*
X50656547Y-26135833D01*
X50716071Y-26195357D01*
X50716071Y-24885833D02*
X50656547Y-24826309D01*
X50597023Y-24885833D01*
X50656547Y-24945357D01*
X50716071Y-24885833D01*
X50597023Y-24885833D01*
X51847023Y-24409642D02*
X51847023Y-23635833D01*
X51370833Y-24052500D01*
X51370833Y-23873928D01*
X51311309Y-23754880D01*
X51251785Y-23695357D01*
X51132738Y-23635833D01*
X50835119Y-23635833D01*
X50716071Y-23695357D01*
X50656547Y-23754880D01*
X50597023Y-23873928D01*
X50597023Y-24231071D01*
X50656547Y-24350119D01*
X50716071Y-24409642D01*
X51430357Y-23219166D02*
X50597023Y-22921547D01*
X51430357Y-22623928D01*
X50597023Y-20540595D02*
X50597023Y-21254880D01*
X50597023Y-20897738D02*
X51847023Y-20897738D01*
X51668452Y-21016785D01*
X51549404Y-21135833D01*
X51489880Y-21254880D01*
X51311309Y-19826309D02*
X51370833Y-19945357D01*
X51430357Y-20004880D01*
X51549404Y-20064404D01*
X51608928Y-20064404D01*
X51727976Y-20004880D01*
X51787500Y-19945357D01*
X51847023Y-19826309D01*
X51847023Y-19588214D01*
X51787500Y-19469166D01*
X51727976Y-19409642D01*
X51608928Y-19350119D01*
X51549404Y-19350119D01*
X51430357Y-19409642D01*
X51370833Y-19469166D01*
X51311309Y-19588214D01*
X51311309Y-19826309D01*
X51251785Y-19945357D01*
X51192261Y-20004880D01*
X51073214Y-20064404D01*
X50835119Y-20064404D01*
X50716071Y-20004880D01*
X50656547Y-19945357D01*
X50597023Y-19826309D01*
X50597023Y-19588214D01*
X50656547Y-19469166D01*
X50716071Y-19409642D01*
X50835119Y-19350119D01*
X51073214Y-19350119D01*
X51192261Y-19409642D01*
X51251785Y-19469166D01*
X51311309Y-19588214D01*
X51847023Y-18576309D02*
X51847023Y-18457261D01*
X51787500Y-18338214D01*
X51727976Y-18278690D01*
X51608928Y-18219166D01*
X51370833Y-18159642D01*
X51073214Y-18159642D01*
X50835119Y-18219166D01*
X50716071Y-18278690D01*
X50656547Y-18338214D01*
X50597023Y-18457261D01*
X50597023Y-18576309D01*
X50656547Y-18695357D01*
X50716071Y-18754880D01*
X50835119Y-18814404D01*
X51073214Y-18873928D01*
X51370833Y-18873928D01*
X51608928Y-18814404D01*
X51727976Y-18754880D01*
X51787500Y-18695357D01*
X51847023Y-18576309D01*
X50597023Y-17683452D02*
X50597023Y-17385833D01*
X50835119Y-17385833D01*
X50894642Y-17504880D01*
X51013690Y-17623928D01*
X51192261Y-17683452D01*
X51489880Y-17683452D01*
X51668452Y-17623928D01*
X51787500Y-17504880D01*
X51847023Y-17326309D01*
X51847023Y-17088214D01*
X51787500Y-16909642D01*
X51668452Y-16790595D01*
X51489880Y-16731071D01*
X51192261Y-16731071D01*
X51013690Y-16790595D01*
X50894642Y-16909642D01*
X50835119Y-17028690D01*
X50597023Y-17028690D01*
X50597023Y-16731071D01*
D11*
%TO.C,J3*%
X22783800Y-40649200D02*
X24113800Y-40649200D01*
X24113800Y-40649200D02*
X24113800Y-39319200D01*
X21513800Y-40649200D02*
X21513800Y-38049200D01*
X21513800Y-38049200D02*
X24113800Y-38049200D01*
X24113800Y-38049200D02*
X24113800Y-15129200D01*
X18913800Y-15129200D02*
X24113800Y-15129200D01*
X18913800Y-40649200D02*
X18913800Y-15129200D01*
X18913800Y-40649200D02*
X21513800Y-40649200D01*
D10*
X25693619Y-39957333D02*
X24979333Y-39957333D01*
X24836476Y-40004952D01*
X24741238Y-40100190D01*
X24693619Y-40243047D01*
X24693619Y-40338285D01*
X25693619Y-39576380D02*
X25693619Y-38957333D01*
X25312666Y-39290666D01*
X25312666Y-39147809D01*
X25265047Y-39052571D01*
X25217428Y-39004952D01*
X25122190Y-38957333D01*
X24884095Y-38957333D01*
X24788857Y-39004952D01*
X24741238Y-39052571D01*
X24693619Y-39147809D01*
X24693619Y-39433523D01*
X24741238Y-39528761D01*
X24788857Y-39576380D01*
%TD*%
M02*
