%TF.GenerationSoftware,KiCad,Pcbnew,(5.1.12)-1*%
%TF.CreationDate,2021-12-28T18:57:02-06:00*%
%TF.ProjectId,iPiMI,6950694d-492e-46b6-9963-61645f706362,rev?*%
%TF.SameCoordinates,Original*%
%TF.FileFunction,Soldermask,Bot*%
%TF.FilePolarity,Negative*%
%FSLAX46Y46*%
G04 Gerber Fmt 4.6, Leading zero omitted, Abs format (unit mm)*
G04 Created by KiCad (PCBNEW (5.1.12)-1) date 2021-12-28 18:57:02*
%MOMM*%
%LPD*%
G01*
G04 APERTURE LIST*
%ADD10R,1.600000X1.600000*%
%ADD11O,1.600000X1.600000*%
%ADD12C,2.000000*%
%ADD13R,1.700000X1.700000*%
%ADD14O,1.700000X1.700000*%
G04 APERTURE END LIST*
D10*
%TO.C,U4*%
X41100000Y-36000000D03*
D11*
X48720000Y-38540000D03*
X41100000Y-38540000D03*
X48720000Y-36000000D03*
%TD*%
D10*
%TO.C,U3*%
X41100000Y-29250000D03*
D11*
X48720000Y-31790000D03*
X41100000Y-31790000D03*
X48720000Y-29250000D03*
%TD*%
D10*
%TO.C,U2*%
X48700000Y-18300000D03*
D11*
X41080000Y-15760000D03*
X48700000Y-15760000D03*
X41080000Y-18300000D03*
%TD*%
D10*
%TO.C,U1*%
X48700000Y-25100000D03*
D11*
X41080000Y-22560000D03*
X48700000Y-22560000D03*
X41080000Y-25100000D03*
%TD*%
D12*
%TO.C,SW2*%
X60411500Y-34925000D03*
X60411500Y-39425000D03*
X53911500Y-34925000D03*
X53911500Y-39425000D03*
%TD*%
%TO.C,SW1*%
X71016000Y-34925000D03*
X71016000Y-39425000D03*
X64516000Y-34925000D03*
X64516000Y-39425000D03*
%TD*%
D13*
%TO.C,J3*%
X22783800Y-39319200D03*
D14*
X20243800Y-39319200D03*
X22783800Y-36779200D03*
X20243800Y-36779200D03*
X22783800Y-34239200D03*
X20243800Y-34239200D03*
X22783800Y-31699200D03*
X20243800Y-31699200D03*
X22783800Y-29159200D03*
X20243800Y-29159200D03*
X22783800Y-26619200D03*
X20243800Y-26619200D03*
X22783800Y-24079200D03*
X20243800Y-24079200D03*
X22783800Y-21539200D03*
X20243800Y-21539200D03*
X22783800Y-18999200D03*
X20243800Y-18999200D03*
X22783800Y-16459200D03*
X20243800Y-16459200D03*
%TD*%
%TO.C,J2*%
X70675500Y-25082500D03*
X68135500Y-25082500D03*
X65595500Y-25082500D03*
X63055500Y-25082500D03*
X60515500Y-25082500D03*
D13*
X57975500Y-25082500D03*
%TD*%
%TO.C,J1*%
X29015000Y-16500000D03*
D14*
X31555000Y-16500000D03*
X29015000Y-19040000D03*
X31555000Y-19040000D03*
X29015000Y-21580000D03*
X31555000Y-21580000D03*
X29015000Y-24120000D03*
X31555000Y-24120000D03*
X29015000Y-26660000D03*
X31555000Y-26660000D03*
X29015000Y-29200000D03*
X31555000Y-29200000D03*
X29015000Y-31740000D03*
X31555000Y-31740000D03*
X29015000Y-34280000D03*
X31555000Y-34280000D03*
X29015000Y-36820000D03*
X31555000Y-36820000D03*
X29015000Y-39360000D03*
X31555000Y-39360000D03*
%TD*%
M02*
